<?xml version="1.0" encoding="UTF-8" standalone="yes"?><!DOCTYPE svg PUBLIC "-//W3C//DTD SVG 1.1//EN" "http://www.w3.org/Graphics/SVG/1.1/DTD/svg11.dtd" [<!ENTITY quot "&#34;"><!ENTITY amp "&#38;"><!ENTITY apos "&#39;"><!ENTITY lt "&#60;"><!ENTITY gt "&#62;"><!ENTITY nbsp "&#160;">]><svg id="DotUML" width="1512pt" height="767pt" xmlns="http://www.w3.org/2000/svg" version="1.1" xmlns:xlink="http://www.w3.org/1999/xlink" xmlns:svgjs="http://svgjs.com/svgjs"><defs id="SvgjsDefs5717"></defs><svg width="1512pt" height="767pt" viewBox="0 0 1513 767" xmlns="http://www.w3.org/2000/svg" xmlns:xlink="http://www.w3.org/1999/xlink" id="DotUML2" preserveAspectRatio="xMidYMid slice"><desc>SequenceDiagram%20%5Bframe=true%20fontsize=%2210%22%20label=%22https%20workflow%22%5D%20%7B%0A%20%20lifeline%20%22Client%22%20as%20c%20autoactivate%0A%20%20lifeline%20%22Server%22%20as%20s%20autoactivate%0A%20%20lifeline%20%22Certificate%20Authority%22%20as%20ca%20autoactivate%0A%09fragment%20strict%20%22certificate%20signing%22%20%7B%0A%20%20%20%20autonumber%201%201%0A%20%20%20%20s%20--%3E%20s%20%22generated%20private%20server%20key%22%0A%20%20%20%20note%20right%20of%20ca%20%22ca%20holds%20private%20ca%20key%20and%20public%20ca%20cert%22%0A%20%20%09s%20--%3E%20ca%20%22certificate%20signing%20request%22%0A%20%20%20%20note%20left%20%22use%20the%20private%20server%20key%20to%20create%20a%20certificate%20signing%20request%20(CSR)%22%0A%09%09ca%20--%3E%20s%20%22return%20signed%20public%20server%20cert%22%0A%20%20%20%20note%20right%20%22use%20private%20ca%20key%20signing%20cert%22%0A%20%20%20%20note%20left%20of%20s%20%22currently%20server%20have%20private%20key%20and%20public%20cert%22%0A%20%20%20%20autonumber%20stop%0A%20%20%20%20s%20-a-%3E%20ca%20%22(async)every%20body%20can%20get%20public%20ca%20cert%22%0A%20%20%20%20autonumber%20resume%0A%20%20%20%20s%20--%3E%20s%20%22use%20public%20ca%20cert%20verify%20server%20cert%22%0A%20%20%20%20autonumber%20stop%0A%20%20%20%20c%20-a-%3E%20ca%20%22(async)every%20body%20can%20get%20public%20ca%20cert%22%0A%20%09%7D%0A%20%20autonumber%201%201%0A%20%20note%20left%20of%20c%20%22currently%20client%20have%20public%20ca%20cert%22%0A%20%20c%20--%3E%20s%20%22request%20https://server-domain.com%22%0A%20%20s%20--%3E%20c%20%22response%20public%20server%20cert%22%0A%20%20note%20left%20of%20c%20%22use%20public%20ca%20cert%20verify%20public%20server%20cert%22%0A%20%20note%20left%20of%20c%20%22if%20unvalid,%20will%20display%20https%20warning%22%0A%20%20c%20--%3E%20c%20%22generated%20random%20symmetric%20key%22%0A%20%20c%20--%3E%20s%20%22transfer%20encrypted%20symmetric%20key%22%0A%20%20note%20left%20%22use%20public%20server%20cert%20to%20encrypt%20random%20key%22%0A%09s%20--%3E%20s%20%22use%20private%20server%20key%20to%20decrypt%20encrypted%20key%22%0A%20%20note%20right%20of%20s%20%22currently%20server%20have%20symmetric%20key%22%0A%20%20s%20--%3E%20c%20%22use%20symmetric%20key%20to%20encryt%20content%22%0A%20%20c%20--%3E%20c%20%22use%20symmetric%20key%20to%20descrypt%20content%22%0A%7D%20</desc><g id="graph0" class="graph dotUmlFrame dotUmlFrameColorblack" transform="scale(1 1) rotate(0) translate(4.32 762.32)"><polygon fill="#ffffff" stroke="transparent" points="-4.32,4.32 -4.32,-762.32 1508.081,-762.32 1508.081,4.32 -4.32,4.32"></polygon><text text-anchor="middle" x="44.996315002441406" y="-752" font-family="monospace,monospace" font-size="10.00" fill="#000000" svgjs:data="{&quot;leading&quot;:&quot;1.3&quot;}">https workflow</text><g id="node25" class=""><g id="a_node25"><a xlink:title=" "><polygon fill="none" stroke="#000000" points="288.952,-734.5 250.964,-734.5 250.964,-705.5 288.952,-705.5 288.952,-734.5"></polygon><text text-anchor="middle" x="269.958" y="-717" font-family="monospace,monospace" font-size="10.00" fill="#000000" svgjs:data="{&quot;leading&quot;:&quot;1.3&quot;}">Client</text></a></g><line id="SvgjsLine5724" x1="269.95799999999997" y1="-705.5" x2="269.95799999999997" y2="-32.5" stroke="#000000" stroke-dasharray="5,5" stroke-width="1"></line><line id="SvgjsLine5728" x1="775.8765000000001" y1="-705.5" x2="775.8765000000001" y2="-32.5" stroke="#000000" stroke-dasharray="5,5" stroke-width="1"></line><line id="SvgjsLine5732" x1="1242.8015" y1="-705.5" x2="1242.8015" y2="-32.5" stroke="#000000" stroke-dasharray="5,5" stroke-width="1"></line></g><g id="edge92" class=""><path id="SvgjsPath6137" d="M21.067725708007828 -400 H243.0487742919922 L249.0487742919922 -394 V-382 H21.067725708007828 z M243.0487742919922 -400 V-394 H249.0487742919922" stroke="#696969" stroke-width="1" fill="#ffffe0"></path><g id="a_edge92"><a xlink:title=" "></a></g><text text-anchor="middle" x="135.05825000000002" y="-387" font-family="monospace,monospace" font-size="10.00" fill="#696969" svgjs:data="{&quot;leading&quot;:&quot;1.3&quot;}">currently client have public ca cert</text></g><g id="node38" class=""><g id="a_node38"><a xlink:title=" "><polygon fill="none" stroke="#000000" points="270.458,-326.5 269.458,-326.5 269.458,-325.5 270.458,-325.5 270.458,-326.5"></polygon></a></g><g id="node47" class=""><g id="a_node47"><a xlink:title=" "><polygon fill="none" stroke="#000000" points="270.458,-64.5 269.458,-64.5 269.458,-63.5 270.458,-63.5 270.458,-64.5"></polygon></a></g></g><path id="SvgjsPath5868" d="M265.458 -330.5 H274.458 V-59.5 H265.458 z" stroke="#000000" stroke-width="1" fill="white"></path></g><g id="edge104" class=""><path id="SvgjsPath6138" d="M-2.9301685791015473 -313 H267.0466685791016 L273.0466685791016 -307 V-295 H-2.9301685791015473 z M267.0466685791016 -313 V-307 H273.0466685791016" stroke="#696969" stroke-width="1" fill="#ffffe0"></path><g id="a_edge104"><a xlink:title=" "></a></g><text text-anchor="middle" x="135.05825000000002" y="-300" font-family="monospace,monospace" font-size="10.00" fill="#696969" svgjs:data="{&quot;leading&quot;:&quot;1.3&quot;}">use public ca cert verify public server cert</text></g><g id="edge108" class=""><path id="SvgjsPath6139" d="M15.068252136230484 -283 H249.04824786376955 L255.04824786376955 -277 V-265 H15.068252136230484 z M249.04824786376955 -283 V-277 H255.04824786376955" stroke="#696969" stroke-width="1" fill="#ffffe0"></path><g id="a_edge108"><a xlink:title=" "></a></g><text text-anchor="middle" x="135.05825000000002" y="-270" font-family="monospace,monospace" font-size="10.00" fill="#696969" svgjs:data="{&quot;leading&quot;:&quot;1.3&quot;}">if unvalid, will display https warning</text></g><g id="edge119" class=""><path id="SvgjsPath6140" d="M-2.9301685791015473 -225 H267.0466685791016 L273.0466685791016 -219 V-207 H-2.9301685791015473 z M267.0466685791016 -225 V-219 H273.0466685791016" stroke="#696969" stroke-width="1" fill="#ffffe0"></path><g id="a_edge119"><a xlink:title=" "></a></g><text text-anchor="middle" x="135.05825000000002" y="-212" font-family="monospace,monospace" font-size="10.00" fill="#696969" svgjs:data="{&quot;leading&quot;:&quot;1.3&quot;}">use public server cert to encrypt random key</text></g><g id="node48" class=""><g id="a_node48"><a xlink:title=" "><polygon fill="none" stroke="#000000" points="288.952,-32.5 250.964,-32.5 250.964,-3.5 288.952,-3.5 288.952,-32.5"></polygon><text text-anchor="middle" x="269.958" y="-15" font-family="monospace,monospace" font-size="10.00" fill="#000000" svgjs:data="{&quot;leading&quot;:&quot;1.3&quot;}">Client</text></a></g></g><g id="node49" class=""><g id="a_node49"><a xlink:title=" "><polygon fill="none" stroke="#000000" points="794.8705,-734.5 756.8825,-734.5 756.8825,-705.5 794.8705,-705.5 794.8705,-734.5"></polygon><text text-anchor="middle" x="775.8765" y="-717" font-family="monospace,monospace" font-size="10.00" fill="#000000" svgjs:data="{&quot;leading&quot;:&quot;1.3&quot;}">Server</text></a></g></g><g id="edge69" class=""><path id="SvgjsPath6141" d="M300.81860141601567 -603 H738.7806985839844 L744.7806985839844 -597 V-585 H300.81860141601567 z M738.7806985839844 -603 V-597 H744.7806985839844" stroke="#696969" stroke-width="1" fill="#ffffe0"></path><g id="a_edge69"><a xlink:title=" "></a></g><text text-anchor="middle" x="522.79965" y="-590" font-family="monospace,monospace" font-size="10.00" fill="#696969" svgjs:data="{&quot;leading&quot;:&quot;1.3&quot;}">use the private server key to create a certificate signing request (CSR)</text></g><g id="node53" class=""><g id="a_node53"><a xlink:title=" "><polygon fill="none" stroke="#000000" points="776.3765,-557.5 775.3765,-557.5 775.3765,-556.5 776.3765,-556.5 776.3765,-557.5"></polygon></a></g><g id="node68" class=""><g id="a_node68"><a xlink:title=" "><polygon fill="none" stroke="#000000" points="776.3765,-64.5 775.3765,-64.5 775.3765,-63.5 776.3765,-63.5 776.3765,-64.5"></polygon></a></g></g><path id="SvgjsPath5873" d="M771.3765 -561.5 H780.3765 V-59.5 H771.3765 z" stroke="#000000" stroke-width="1" fill="white"></path></g><g id="edge75" class=""><path id="SvgjsPath6142" d="M369.8125589355469 -545 H669.7867410644532 L675.7867410644532 -539 V-527 H369.8125589355469 z M669.7867410644532 -545 V-539 H675.7867410644532" stroke="#696969" stroke-width="1" fill="#ffffe0"></path><g id="a_edge75"><a xlink:title=" "></a></g><text text-anchor="middle" x="522.79965" y="-532" font-family="monospace,monospace" font-size="10.00" fill="#696969" svgjs:data="{&quot;leading&quot;:&quot;1.3&quot;}">currently server have private key and public cert</text></g><g id="edge87" class=""><g id="a_edge87"><a xlink:title=" "><path fill="none" stroke="#000000" d="M270.6631 -442.9993 H1227.8092"></path><polygon fill="#000000" stroke="#000000" points="1238.1181,-442.0007 1228.1228,-446.5111 1233.1181,-442.0059 1228.1181,-442.0111 1228.1181,-442.0111 1228.1181,-442.0111 1233.1181,-442.0059 1228.1135,-437.5111 1238.1181,-442.0007 1238.1181,-442.0007"></polygon></a></g><text text-anchor="middle" x="751.23615" y="-445" font-family="monospace,monospace" font-size="10.00" fill="#000000" svgjs:data="{&quot;leading&quot;:&quot;1.3&quot;}">(async)every body can get public ca cert</text></g><g id="edge90" class=""></g><g id="edge97" class=""><g id="a_edge97"><a xlink:title=" "><path fill="none" stroke="#000000" d="M274.7787 -356.9781 H760.7929"></path><polygon fill="#000000" stroke="#000000" points="761.0866,-360.4786 771.0935,-356.9985 761.1005,-353.4786 761.0866,-360.4786"></polygon></a></g><text text-anchor="middle" x="517.7858" y="-359" font-family="monospace,monospace" font-size="10.00" fill="#000000" svgjs:data="{&quot;leading&quot;:&quot;1.3&quot;}">1: request https://server-domain.com</text></g><g id="edge101" class=""><g id="a_edge101"><a xlink:title=" "><path fill="none" stroke="#000000" d="M285.176 -326 H771.0935"></path><polygon fill="#000000" stroke="#000000" points="284.7787,-322.5001 274.7787,-326 284.7787,-329.5001 284.7787,-322.5001"></polygon></a></g><text text-anchor="middle" x="528.1347499999999" y="-329" font-family="monospace,monospace" font-size="10.00" fill="#000000" svgjs:data="{&quot;leading&quot;:&quot;1.3&quot;}">2: response public server cert</text></g><g id="edge113" class=""><g id="a_edge113"><a xlink:title=" "><polygon fill="#000000" stroke="#000000" points="280.7787,-236.5001 270.7787,-240 280.7787,-243.5001 280.7787,-236.5001"></polygon></a></g><text text-anchor="middle" x="488.923" y="-243" font-family="monospace,monospace" font-size="10.00" fill="#000000" svgjs:data="{&quot;leading&quot;:&quot;1.3&quot;}">3: generated random symmetric key</text><path id="SvgjsPath5774" d="M270.7787 -250 H290.7787 V-240 H270.7787" fill="none" stroke="#000000" stroke-width="1"></path></g><g id="edge116" class=""><g id="a_edge116"><a xlink:title=" "><path fill="none" stroke="#000000" d="M274.7787 -209 H760.7929"></path><polygon fill="#000000" stroke="#000000" points="761.0936,-212.5001 771.0935,-209 761.0935,-205.5001 761.0936,-212.5001"></polygon></a></g><text text-anchor="middle" x="517.7858" y="-212" font-family="monospace,monospace" font-size="10.00" fill="#000000" svgjs:data="{&quot;leading&quot;:&quot;1.3&quot;}">4: transfer encrypted symmetric key</text></g><g id="edge129" class=""><g id="a_edge129"><a xlink:title=" "><path fill="none" stroke="#000000" d="M285.176 -124 H771.0935"></path><polygon fill="#000000" stroke="#000000" points="284.7787,-120.5001 274.7787,-124 284.7787,-127.5001 284.7787,-120.5001"></polygon></a></g><text text-anchor="middle" x="528.1347499999999" y="-127" font-family="monospace,monospace" font-size="10.00" fill="#000000" svgjs:data="{&quot;leading&quot;:&quot;1.3&quot;}">6: use symmetric key to encryt content</text></g><g id="edge133" class=""><g id="a_edge133"><a xlink:title=" "><polygon fill="#000000" stroke="#000000" points="280.7787,-89.5001 270.7787,-93 280.7787,-96.5001 280.7787,-89.5001"></polygon></a></g><text text-anchor="middle" x="488.923" y="-96" font-family="monospace,monospace" font-size="10.00" fill="#000000" svgjs:data="{&quot;leading&quot;:&quot;1.3&quot;}">7: use symmetric key to descrypt content</text><path id="SvgjsPath5779" d="M270.7787 -103 H290.7787 V-93 H270.7787" fill="none" stroke="#000000" stroke-width="1"></path></g><g id="node69" class=""><g id="a_node69"><a xlink:title=" "><polygon fill="none" stroke="#000000" points="794.8705,-32.5 756.8825,-32.5 756.8825,-3.5 794.8705,-3.5 794.8705,-32.5"></polygon><text text-anchor="middle" x="775.8765" y="-15" font-family="monospace,monospace" font-size="10.00" fill="#000000" svgjs:data="{&quot;leading&quot;:&quot;1.3&quot;}">Server</text></a></g></g><g id="node70" class=""><g id="a_node70"><a xlink:title=" "><polygon fill="none" stroke="#000000" points="1306.7805,-734.5 1178.8225,-734.5 1178.8225,-705.5 1306.7805,-705.5 1306.7805,-734.5"></polygon><text text-anchor="middle" x="1242.8015" y="-717" font-family="monospace,monospace" font-size="10.00" fill="#000000" svgjs:data="{&quot;leading&quot;:&quot;1.3&quot;}">Certificate Authority</text></a></g></g><g id="edge60" class=""><g id="a_edge60"><a xlink:title=" "><polygon fill="#000000" stroke="#000000" points="786.634,-641.5001 776.6339,-645 786.6339,-648.5001 786.634,-641.5001"></polygon></a></g><text text-anchor="middle" x="1020.837" y="-648" font-family="monospace,monospace" font-size="10.00" fill="#000000" svgjs:data="{&quot;leading&quot;:&quot;1.3&quot;}">1: generated private server key</text><path id="SvgjsPath5784" d="M776.6339 -655 H796.6339 V-645 H776.6339" fill="none" stroke="#000000" stroke-width="1"></path></g><g id="node74" class=""><g id="a_node74"><a xlink:title=" "><polygon fill="none" stroke="#000000" points="1243.3015,-587.5 1242.3015,-587.5 1242.3015,-586.5 1243.3015,-586.5 1243.3015,-587.5"></polygon></a></g><g id="node92" class=""><g id="a_node92"><a xlink:title=" "><polygon fill="none" stroke="#000000" points="1243.3015,-64.5 1242.3015,-64.5 1242.3015,-63.5 1243.3015,-63.5 1243.3015,-64.5"></polygon></a></g></g><path id="SvgjsPath5877" d="M1238.3015 -591.5 H1247.3015 V-59.5 H1238.3015 z" stroke="#000000" stroke-width="1" fill="white"></path></g><g id="edge67" class=""><g id="a_edge67"><a xlink:title=" "><path fill="none" stroke="#000000" d="M780.6339 -587 H1227.7179"></path><polygon fill="#000000" stroke="#000000" points="1228.0789,-590.5001 1238.0789,-587 1228.0788,-583.5001 1228.0789,-590.5001"></polygon></a></g><text text-anchor="middle" x="1004.1759000000001" y="-590" font-family="monospace,monospace" font-size="10.00" fill="#000000" svgjs:data="{&quot;leading&quot;:&quot;1.3&quot;}">2: certificate signing request</text></g><g id="edge72" class=""><g id="a_edge72"><a xlink:title=" "><path fill="none" stroke="#000000" d="M790.6553 -557 H1238.0789"></path><polygon fill="#000000" stroke="#000000" points="790.634,-553.5001 780.6339,-557 790.6339,-560.5001 790.634,-553.5001"></polygon></a></g><text text-anchor="middle" x="1014.3670999999999" y="-560" font-family="monospace,monospace" font-size="10.00" fill="#000000" svgjs:data="{&quot;leading&quot;:&quot;1.3&quot;}">3: return signed public server cert</text></g><g id="edge80" class=""><g id="a_edge80"><a xlink:title=" "><path fill="none" stroke="#000000" d="M780.6339 -501 H1227.7179"></path><polygon fill="#000000" stroke="#000000" points="1238.0789,-501 1228.0789,-505.5001 1233.0789,-501 1228.0789,-501.0001 1228.0789,-501.0001 1228.0789,-501.0001 1233.0789,-501 1228.0788,-496.5001 1238.0789,-501 1238.0789,-501"></polygon></a></g><text text-anchor="middle" x="1004.1759000000001" y="-504" font-family="monospace,monospace" font-size="10.00" fill="#000000" svgjs:data="{&quot;leading&quot;:&quot;1.3&quot;}">(async)every body can get public ca cert</text></g><g id="edge84" class=""><g id="a_edge84"><a xlink:title=" "><polygon fill="#000000" stroke="#000000" points="786.634,-466.5001 776.6339,-470 786.6339,-473.5001 786.634,-466.5001"></polygon></a></g><text text-anchor="middle" x="1020.837" y="-473" font-family="monospace,monospace" font-size="10.00" fill="#000000" svgjs:data="{&quot;leading&quot;:&quot;1.3&quot;}">4: use public ca cert verify server cert</text><path id="SvgjsPath5789" d="M776.6339 -480 H796.6339 V-470 H776.6339" fill="none" stroke="#000000" stroke-width="1"></path></g><g id="edge122" class=""><g id="a_edge122"><a xlink:title=" "><polygon fill="#000000" stroke="#000000" points="786.6264,-179.4769 776.6339,-182.9984 786.6415,-186.4769 786.6264,-179.4769"></polygon></a></g><text text-anchor="middle" x="1020.837" y="-185" font-family="monospace,monospace" font-size="10.00" fill="#000000" svgjs:data="{&quot;leading&quot;:&quot;1.3&quot;}">5: use private server key to decrypt encrypted key</text><path id="SvgjsPath5794" d="M776.6339 -192.9769 H796.6339 V-182.9769 H776.6339" fill="none" stroke="#000000" stroke-width="1"></path></g><g id="edge126" class=""><path id="SvgjsPath6143" d="M898.2396663085938 -168 H1114.2212336914063 L1120.2212336914063 -162 V-150 H898.2396663085938 z M1114.2212336914063 -168 V-162 H1120.2212336914063" stroke="#696969" stroke-width="1" fill="#ffffe0"></path><g id="a_edge126"><a xlink:title=" "></a></g><text text-anchor="middle" x="1009.23045" y="-155" font-family="monospace,monospace" font-size="10.00" fill="#696969" svgjs:data="{&quot;leading&quot;:&quot;1.3&quot;}">currently server have symmetric key</text></g><g id="node93" class=""><g id="a_node93"><a xlink:title=" "><polygon fill="none" stroke="#000000" points="1306.7805,-32.5 1178.8225,-32.5 1178.8225,-3.5 1306.7805,-3.5 1306.7805,-32.5"></polygon><text text-anchor="middle" x="1242.8015" y="-15" font-family="monospace,monospace" font-size="10.00" fill="#000000" svgjs:data="{&quot;leading&quot;:&quot;1.3&quot;}">Certificate Authority</text></a></g></g><g id="edge65" class=""><path id="SvgjsPath6144" d="M1240.8772549926757 -632 H1498.8551450073242 L1504.8551450073242 -626 V-614 H1240.8772549926757 z M1498.8551450073242 -632 V-626 H1504.8551450073242" stroke="#696969" stroke-width="1" fill="#ffffe0"></path><g id="a_edge65"><a xlink:title=" "></a></g><text text-anchor="middle" x="1372.8662" y="-619" font-family="monospace,monospace" font-size="10.00" fill="#696969" svgjs:data="{&quot;leading&quot;:&quot;1.3&quot;}">ca holds private ca key and public ca cert</text></g><g id="edge73" class=""><path id="SvgjsPath6145" d="M1273.8743634521484 -573 H1465.8580365478515 L1471.8580365478515 -567 V-555 H1273.8743634521484 z M1465.8580365478515 -573 V-567 H1471.8580365478515" stroke="#696969" stroke-width="1" fill="#ffffe0"></path><g id="a_edge73"><a xlink:title=" "></a></g><text text-anchor="middle" x="1372.8662" y="-560" font-family="monospace,monospace" font-size="10.00" fill="#696969" svgjs:data="{&quot;leading&quot;:&quot;1.3&quot;}">use private ca key signing cert</text></g><g id="edge56" class=""><g id="a_edge56"><a xlink:title=" "></a></g><text text-anchor="middle" x="777.2319900726318" y="-668.984375" font-family="monospace,monospace" font-size="10.00" fill="#000000" svgjs:data="{&quot;leading&quot;:&quot;1.3&quot;}">certificate signing</text><path id="SvgjsPath5900" d="M260.6631 -679 H1251.8092 V-408.0007 H260.6631 z" fill="none" stroke="#000000" stroke-width="1"></path><path id="SvgjsPath5901" d="M260.6631 -679 H312.65478014526366 V-673 L306.65478014526366 -667 H260.6631 z" fill="lightgray" stroke="#000000" stroke-width="1"></path><text text-anchor="middle" x="281.6589400726318" y="-668.984375" font-family="monospace,monospace" font-size="10.00" fill="#000000" svgjs:data="{&quot;leading&quot;:&quot;1.3&quot;}"> &nbsp;strict</text></g><rect id="SvgjsRect6117" width="1512.081" height="766.32" x="-4" y="-762" fill="none" stroke="black" stroke-width="1"></rect><path id="SvgjsPath6136" d="M-4 -762 H93.99263000488281 V-755 L86.99263000488281 -748 L-4 -748 z" fill="none" stroke="black" stroke-width="1"></path></g></svg></svg>