<?xml version="1.0" encoding="UTF-8" standalone="yes"?><!DOCTYPE svg PUBLIC "-//W3C//DTD SVG 1.1//EN" "http://www.w3.org/Graphics/SVG/1.1/DTD/svg11.dtd" [<!ENTITY quot "&#34;"><!ENTITY amp "&#38;"><!ENTITY apos "&#39;"><!ENTITY lt "&#60;"><!ENTITY gt "&#62;"><!ENTITY nbsp "&#160;">]><svg id="DotUML" width="5097pt" height="1145pt" xmlns="http://www.w3.org/2000/svg" version="1.1" xmlns:xlink="http://www.w3.org/1999/xlink" xmlns:svgjs="http://svgjs.com/svgjs"><defs id="SvgjsDefs2891"></defs><svg width="5097pt" height="1145pt" viewBox="0 0 5097 1145" xmlns="http://www.w3.org/2000/svg" xmlns:xlink="http://www.w3.org/1999/xlink" id="DotUML2" preserveAspectRatio="xMidYMid slice"><desc>SequenceDiagram%20%5Bframe=true%20fontsize=%2235%22%20label=%22https%20workflow%22%5D%20%7B%0A%20%20lifeline%20%22Client%22%20as%20c%20autoactivate%0A%20%20lifeline%20%22Server%22%20as%20s%20autoactivate%0A%20%20lifeline%20%22Certificate%20Authority%22%20as%20ca%20autoactivate%0A%09fragment%20strict%20%22certificate%20signing%22%20%7B%0A%20%20%20%20autonumber%201%201%0A%20%20%20%20s%20--%3E%20s%20%22generated%20private%20server%20key%22%0A%20%20%20%20note%20right%20of%20ca%20%22ca%20holds%20private%20ca%20key%20and%20public%20ca%20cert%22%0A%20%20%09s%20--%3E%20ca%20%22certificate%20signing%20request%22%0A%20%20%20%20note%20left%20%22use%20the%20private%20server%20key%20to%20create%20a%20certificate%20signing%20request%20(CSR)%22%0A%09%09ca%20--%3E%20s%20%22return%20signed%20public%20server%20cert%22%0A%20%20%20%20note%20right%20%22use%20private%20ca%20key%20signing%20cert%22%0A%20%20%20%20note%20left%20of%20s%20%22currently%20server%20have%20private%20key%20and%20public%20cert%22%0A%20%20%20%20autonumber%20stop%0A%20%20%20%20s%20-a-%3E%20ca%20%22(async)every%20body%20can%20get%20public%20ca%20cert%22%0A%20%20%20%20autonumber%20resume%0A%20%20%20%20s%20--%3E%20s%20%22use%20public%20ca%20cert%20verify%20server%20cert%22%0A%20%20%20%20autonumber%20stop%0A%20%20%20%20c%20-a-%3E%20ca%20%22(async)every%20body%20can%20get%20public%20ca%20cert%22%0A%20%09%7D%0A%20%20autonumber%201%201%0A%20%20note%20left%20of%20c%20%22currently%20client%20have%20public%20ca%20cert%22%0A%20%20c%20--%3E%20s%20%22request%20https://server-domain.com%22%0A%20%20s%20--%3E%20c%20%22response%20public%20server%20cert%22%0A%20%20note%20left%20of%20c%20%22use%20public%20ca%20cert%20verify%20public%20server%20cert%22%0A%20%20note%20left%20of%20c%20%22if%20unvalid,%20will%20display%20https%20warning%22%0A%20%20c%20--%3E%20c%20%22generated%20random%20symmetric%20key%22%0A%20%20c%20--%3E%20s%20%22transfer%20encrypted%20symmetric%20key%22%0A%20%20note%20left%20%22use%20public%20server%20cert%20to%20encrypt%20random%20key%22%0A%09s%20--%3E%20s%20%22use%20private%20server%20key%20to%20decrypt%20encrypted%20key%22%0A%20%20note%20right%20of%20s%20%22currently%20server%20have%20symmetric%20key%22%0A%20%20s%20--%3E%20c%20%22use%20symmetric%20key%20to%20encryt%20content%22%0A%20%20c%20--%3E%20c%20%22use%20symmetric%20key%20to%20descrypt%20content%22%0A%7D%20</desc><g id="graph0" class="graph dotUmlFrame dotUmlFrameColorblack" transform="scale(1 1) rotate(0) translate(4.32 1140.32)"><polygon fill="#ffffff" stroke="transparent" points="-4.32,4.32 -4.32,-1140.32 5092.4835,-1140.32 5092.4835,4.32 -4.32,4.32"></polygon><text text-anchor="middle" x="150.01866149902344" y="-1107.5" font-family="monospace,monospace" font-size="35.00" fill="#000000" svgjs:data="{&quot;leading&quot;:&quot;1.3&quot;}">https workflow</text><g id="node25" class=""><g id="a_node25"><a xlink:title=" "><polygon fill="none" stroke="#000000" points="963.832,-1082 835.874,-1082 835.874,-1038 963.832,-1038 963.832,-1082"></polygon><text text-anchor="middle" x="899.853" y="-1049.5" font-family="monospace,monospace" font-size="35.00" fill="#000000" svgjs:data="{&quot;leading&quot;:&quot;1.3&quot;}">Client</text></a></g><line id="SvgjsLine2898" x1="899.8530000000001" y1="-1038" x2="899.8530000000001" y2="-44" stroke="#000000" stroke-dasharray="5,5" stroke-width="1"></line><line id="SvgjsLine2902" x1="2628.06775" y1="-1042" x2="2628.06775" y2="-44" stroke="#000000" stroke-dasharray="5,5" stroke-width="1"></line><line id="SvgjsLine2906" x1="4219.805249999999" y1="-1032" x2="4219.805249999999" y2="-44" stroke="#000000" stroke-dasharray="5,5" stroke-width="1"></line></g><g id="edge92" class=""><path id="SvgjsPath3311" d="M66.01080688476566 -585 H828.1066931152344 L834.1066931152344 -579 V-542 H66.01080688476566 z M828.1066931152344 -585 V-579 H834.1066931152344" stroke="#696969" stroke-width="1" fill="#ffffe0"></path><g id="a_edge92"><a xlink:title=" "></a></g><text text-anchor="middle" x="450.05875000000003" y="-549.5" font-family="monospace,monospace" font-size="35.00" fill="#696969" svgjs:data="{&quot;leading&quot;:&quot;1.3&quot;}">currently client have public ca cert</text></g><g id="node38" class=""><g id="a_node38"><a xlink:title=" "><polygon fill="none" stroke="#000000" points="900.353,-459.5 899.353,-459.5 899.353,-458.5 900.353,-458.5 900.353,-459.5"></polygon></a></g><g id="node47" class=""><g id="a_node47"><a xlink:title=" "><polygon fill="none" stroke="#000000" points="900.353,-68.5 899.353,-68.5 899.353,-67.5 900.353,-67.5 900.353,-68.5"></polygon></a></g></g><path id="SvgjsPath3045" d="M895.353 -463.5 H904.353 V-63.5 H895.353 z" stroke="#000000" stroke-width="1" fill="white"></path></g><g id="edge104" class=""><path id="SvgjsPath3312" d="M-18.04548530273439 -465 H912.0718853027344 L918.0718853027344 -459 V-422 H-18.04548530273439 z M912.0718853027344 -465 V-459 H918.0718853027344" stroke="#696969" stroke-width="1" fill="#ffffe0"></path><g id="a_edge104"><a xlink:title=" "></a></g><text text-anchor="middle" x="450.0132" y="-429.5" font-family="monospace,monospace" font-size="35.00" fill="#696969" svgjs:data="{&quot;leading&quot;:&quot;1.3&quot;}">use public ca cert verify public server cert</text></g><g id="edge108" class=""><path id="SvgjsPath3313" d="M44.96257133789061 -416 H849.0638286621094 L855.0638286621094 -410 V-373 H44.96257133789061 z M849.0638286621094 -416 V-410 H855.0638286621094" stroke="#696969" stroke-width="1" fill="#ffffe0"></path><g id="a_edge108"><a xlink:title=" "></a></g><text text-anchor="middle" x="450.0132" y="-380.5" font-family="monospace,monospace" font-size="35.00" fill="#696969" svgjs:data="{&quot;leading&quot;:&quot;1.3&quot;}">if unvalid, will display https warning</text></g><g id="edge119" class=""><path id="SvgjsPath3314" d="M-18.04542426757814 -316 H912.0718242675781 L918.0718242675781 -310 V-273 H-18.04542426757814 z M912.0718242675781 -316 V-310 H918.0718242675781" stroke="#696969" stroke-width="1" fill="#ffffe0"></path><g id="a_edge119"><a xlink:title=" "></a></g><text text-anchor="middle" x="450.0132" y="-280.5" font-family="monospace,monospace" font-size="35.00" fill="#696969" svgjs:data="{&quot;leading&quot;:&quot;1.3&quot;}">use public server cert to encrypt random key</text></g><g id="node48" class=""><g id="a_node48"><a xlink:title=" "><polygon fill="none" stroke="#000000" points="963.832,-44 835.874,-44 835.874,0 963.832,0 963.832,-44"></polygon><text text-anchor="middle" x="899.853" y="-11.5" font-family="monospace,monospace" font-size="35.00" fill="#000000" svgjs:data="{&quot;leading&quot;:&quot;1.3&quot;}">Client</text></a></g></g><g id="node49" class=""><g id="a_node49"><a xlink:title=" "><polygon fill="none" stroke="#000000" points="2692.0468,-1086 2564.0887,-1086 2564.0887,-1042 2692.0468,-1042 2692.0468,-1086"></polygon><text text-anchor="middle" x="2628.0678" y="-1053.5" font-family="monospace,monospace" font-size="35.00" fill="#000000" svgjs:data="{&quot;leading&quot;:&quot;1.3&quot;}">Server</text></a></g></g><g id="edge69" class=""><path id="SvgjsPath3315" d="M1001.7502027343751 -894 H2519.9420972656253 L2525.9420972656253 -888 V-851 H1001.7502027343751 z M2519.9420972656253 -894 V-888 H2525.9420972656253" stroke="#696969" stroke-width="1" fill="#ffffe0"></path><g id="a_edge69"><a xlink:title=" "></a></g><text text-anchor="middle" x="1763.84615" y="-858.5" font-family="monospace,monospace" font-size="35.00" fill="#696969" svgjs:data="{&quot;leading&quot;:&quot;1.3&quot;}">use the private server key to create a certificate signing request (CSR)</text></g><g id="node53" class=""><g id="a_node53"><a xlink:title=" "><polygon fill="none" stroke="#000000" points="2628.5678,-791.5 2627.5678,-791.5 2627.5678,-790.5 2628.5678,-790.5 2628.5678,-791.5"></polygon></a></g><g id="node68" class=""><g id="a_node68"><a xlink:title=" "><polygon fill="none" stroke="#000000" points="2628.5678,-68.5 2627.5678,-68.5 2627.5678,-67.5 2628.5678,-67.5 2628.5678,-68.5"></polygon></a></g></g><path id="SvgjsPath3050" d="M2623.5678 -795.5 H2632.5678 V-63.5 H2623.5678 z" stroke="#000000" stroke-width="1" fill="white"></path></g><g id="edge75" class=""><path id="SvgjsPath3316" d="M1243.2951534179688 -798 H2278.4256465820313 L2284.4256465820313 -792 V-755 H1243.2951534179688 z M2278.4256465820313 -798 V-792 H2284.4256465820313" stroke="#696969" stroke-width="1" fill="#ffffe0"></path><g id="a_edge75"><a xlink:title=" "></a></g><text text-anchor="middle" x="1763.8604" y="-762.5" font-family="monospace,monospace" font-size="35.00" fill="#696969" svgjs:data="{&quot;leading&quot;:&quot;1.3&quot;}">currently server have private key and public cert</text></g><g id="edge87" class=""><g id="a_edge87"><a xlink:title=" "><path fill="none" stroke="#000000" d="M900.4577 -616.9998 H4205.0524"></path><polygon fill="#000000" stroke="#000000" points="4215.2099,-616.0002 4205.2113,-620.5033 4210.2099,-616.0017 4205.2099,-616.0033 4205.2099,-616.0033 4205.2099,-616.0033 4210.2099,-616.0017 4205.2085,-611.5033 4215.2099,-616.0002 4215.2099,-616.0002"></polygon></a></g><text text-anchor="middle" x="2554.7550499999998" y="-626.5" font-family="monospace,monospace" font-size="35.00" fill="#000000" svgjs:data="{&quot;leading&quot;:&quot;1.3&quot;}">(async)every body can get public ca cert</text></g><g id="edge90" class=""></g><g id="edge97" class=""><g id="a_edge97"><a xlink:title=" "><path fill="none" stroke="#000000" d="M904.5594 -504 H2613.0329"></path><polygon fill="#000000" stroke="#000000" points="2613.3777,-507.5001 2623.3777,-504 2613.3777,-500.5001 2613.3777,-507.5001"></polygon></a></g><text text-anchor="middle" x="1758.7961500000001" y="-514.5" font-family="monospace,monospace" font-size="35.00" fill="#000000" svgjs:data="{&quot;leading&quot;:&quot;1.3&quot;}">1: request https://server-domain.com</text></g><g id="edge101" class=""><g id="a_edge101"><a xlink:title=" "><path fill="none" stroke="#000000" d="M914.9515 -458.90075 H2623.3777"></path><polygon fill="#000000" stroke="#000000" points="914.5266,-455.4009 904.5594,-458.9935 914.5914,-462.4006 914.5266,-455.4009"></polygon></a></g><text text-anchor="middle" x="1769.1646" y="-468.5" font-family="monospace,monospace" font-size="35.00" fill="#000000" svgjs:data="{&quot;leading&quot;:&quot;1.3&quot;}">2: response public server cert</text></g><g id="edge113" class=""><g id="a_edge113"><a xlink:title=" "><polygon fill="#000000" stroke="#000000" points="910.5595,-327.5001 900.5594,-331 910.5594,-334.5001 910.5595,-327.5001"></polygon></a></g><text text-anchor="middle" x="1643.7305" y="-341.5" font-family="monospace,monospace" font-size="35.00" fill="#000000" svgjs:data="{&quot;leading&quot;:&quot;1.3&quot;}">3: generated random symmetric key</text><path id="SvgjsPath2951" d="M900.5594 -341 H920.5594 V-331 H900.5594" fill="none" stroke="#000000" stroke-width="1"></path></g><g id="edge116" class=""><g id="a_edge116"><a xlink:title=" "><path fill="none" stroke="#000000" d="M904.5594 -283.91330000000005 H2613.0329"></path><polygon fill="#000000" stroke="#000000" points="2613.3496,-287.4132 2623.3777,-283.9944 2613.4064,-280.4134 2613.3496,-287.4132"></polygon></a></g><text text-anchor="middle" x="1758.7961500000001" y="-291.5" font-family="monospace,monospace" font-size="35.00" fill="#000000" svgjs:data="{&quot;leading&quot;:&quot;1.3&quot;}">4: transfer encrypted symmetric key</text></g><g id="edge129" class=""><g id="a_edge129"><a xlink:title=" "><path fill="none" stroke="#000000" d="M914.9515 -156 H2623.3777"></path><polygon fill="#000000" stroke="#000000" points="914.5595,-152.5001 904.5594,-156 914.5594,-159.5001 914.5595,-152.5001"></polygon></a></g><text text-anchor="middle" x="1769.1646" y="-166.5" font-family="monospace,monospace" font-size="35.00" fill="#000000" svgjs:data="{&quot;leading&quot;:&quot;1.3&quot;}">6: use symmetric key to encryt content</text></g><g id="edge133" class=""><g id="a_edge133"><a xlink:title=" "><polygon fill="#000000" stroke="#000000" points="910.5574,-92.4937 900.5594,-95.9996 910.5615,-99.4937 910.5574,-92.4937"></polygon></a></g><text text-anchor="middle" x="1643.7305" y="-105.5" font-family="monospace,monospace" font-size="35.00" fill="#000000" svgjs:data="{&quot;leading&quot;:&quot;1.3&quot;}">7: use symmetric key to descrypt content</text><path id="SvgjsPath2956" d="M900.5594 -105.9936 H920.5594 V-95.9936 H900.5594" fill="none" stroke="#000000" stroke-width="1"></path></g><g id="node69" class=""><g id="a_node69"><a xlink:title=" "><polygon fill="none" stroke="#000000" points="2692.0468,-44 2564.0887,-44 2564.0887,0 2692.0468,0 2692.0468,-44"></polygon><text text-anchor="middle" x="2628.0678" y="-11.5" font-family="monospace,monospace" font-size="35.00" fill="#000000" svgjs:data="{&quot;leading&quot;:&quot;1.3&quot;}">Server</text></a></g></g><g id="node70" class=""><g id="a_node70"><a xlink:title=" "><polygon fill="none" stroke="#000000" points="4441.2318,-1076 3998.3787,-1076 3998.3787,-1032 4441.2318,-1032 4441.2318,-1076"></polygon><text text-anchor="middle" x="4219.8053" y="-1043.5" font-family="monospace,monospace" font-size="35.00" fill="#000000" svgjs:data="{&quot;leading&quot;:&quot;1.3&quot;}">Certificate Authority</text></a></g></g><g id="edge60" class=""><g id="a_edge60"><a xlink:title=" "><polygon fill="#000000" stroke="#000000" points="2638.5964,-927.4334 2628.6186,-930.9964 2638.6405,-934.4333 2638.5964,-927.4334"></polygon></a></g><text text-anchor="middle" x="3465.4295" y="-943.5" font-family="monospace,monospace" font-size="35.00" fill="#000000" svgjs:data="{&quot;leading&quot;:&quot;1.3&quot;}">1: generated private server key</text><path id="SvgjsPath2961" d="M2628.6186 -947.9755 H2648.6186 V-937.9755 H2628.6186" fill="none" stroke="#000000" stroke-width="1"></path></g><g id="node74" class=""><g id="a_node74"><a xlink:title=" "><polygon fill="none" stroke="#000000" points="4220.3053,-848.5 4219.3053,-848.5 4219.3053,-847.5 4220.3053,-847.5 4220.3053,-848.5"></polygon></a></g><g id="node92" class=""><g id="a_node92"><a xlink:title=" "><polygon fill="none" stroke="#000000" points="4220.3053,-68.5 4219.3053,-68.5 4219.3053,-67.5 4220.3053,-67.5 4220.3053,-68.5"></polygon></a></g></g><path id="SvgjsPath3054" d="M4215.3053 -852.5 H4224.3053 V-63.5 H4215.3053 z" stroke="#000000" stroke-width="1" fill="white"></path></g><g id="edge67" class=""><g id="a_edge67"><a xlink:title=" "><path fill="none" stroke="#000000" d="M2632.7184 -848 H4204.8122"></path><polygon fill="#000000" stroke="#000000" points="4205.1697,-851.5001 4215.1697,-848 4205.1697,-844.5001 4205.1697,-851.5001"></polygon></a></g><text text-anchor="middle" x="3418.7653" y="-858.5" font-family="monospace,monospace" font-size="35.00" fill="#000000" svgjs:data="{&quot;leading&quot;:&quot;1.3&quot;}">2: certificate signing request</text></g><g id="edge72" class=""><g id="a_edge72"><a xlink:title=" "><path fill="none" stroke="#000000" d="M2643.1217 -790.97315 H4215.1697"></path><polygon fill="#000000" stroke="#000000" points="2642.7095,-787.4732 2632.7184,-790.9984 2642.7272,-794.4731 2642.7095,-787.4732"></polygon></a></g><text text-anchor="middle" x="3429.1457" y="-800.5" font-family="monospace,monospace" font-size="35.00" fill="#000000" svgjs:data="{&quot;leading&quot;:&quot;1.3&quot;}">3: return signed public server cert</text></g><g id="edge80" class=""><g id="a_edge80"><a xlink:title=" "><path fill="none" stroke="#000000" d="M2632.7184 -705 H4204.8122"></path><polygon fill="#000000" stroke="#000000" points="4215.1697,-705 4205.1697,-709.5001 4210.1697,-705 4205.1697,-705.0001 4205.1697,-705.0001 4205.1697,-705.0001 4210.1697,-705 4205.1697,-700.5001 4215.1697,-705 4215.1697,-705"></polygon></a></g><text text-anchor="middle" x="3418.7653" y="-715.5" font-family="monospace,monospace" font-size="35.00" fill="#000000" svgjs:data="{&quot;leading&quot;:&quot;1.3&quot;}">(async)every body can get public ca cert</text></g><g id="edge84" class=""><g id="a_edge84"><a xlink:title=" "><polygon fill="#000000" stroke="#000000" points="2638.9486,-670.8728 2628.8355,-674.0309 2638.7107,-677.8687 2638.9486,-670.8728"></polygon></a></g><text text-anchor="middle" x="3465.4295" y="-670.5" font-family="monospace,monospace" font-size="35.00" fill="#000000" svgjs:data="{&quot;leading&quot;:&quot;1.3&quot;}">4: use public ca cert verify server cert</text><path id="SvgjsPath2966" d="M2628.8355 -685.10546875 H2648.8355 V-675.10546875 H2628.8355" fill="none" stroke="#000000" stroke-width="1"></path></g><g id="edge122" class=""><g id="a_edge122"><a xlink:title=" "><polygon fill="#000000" stroke="#000000" points="2638.7206,-238.5068 2628.7184,-242.0004 2638.7162,-245.5068 2638.7206,-238.5068"></polygon></a></g><text text-anchor="middle" x="3465.4295" y="-252.5" font-family="monospace,monospace" font-size="35.00" fill="#000000" svgjs:data="{&quot;leading&quot;:&quot;1.3&quot;}">5: use private server key to decrypt encrypted key</text><path id="SvgjsPath2971" d="M2628.7184 -252.9996 H2648.7184 V-242.9996 H2628.7184" fill="none" stroke="#000000" stroke-width="1"></path></g><g id="edge126" class=""><path id="SvgjsPath3317" d="M3050.284669140625 -240 H3791.377930859375 L3797.377930859375 -234 V-197 H3050.284669140625 z M3791.377930859375 -240 V-234 H3797.377930859375" stroke="#696969" stroke-width="1" fill="#ffffe0"></path><g id="a_edge126"><a xlink:title=" "></a></g><text text-anchor="middle" x="3423.8313" y="-204.5" font-family="monospace,monospace" font-size="35.00" fill="#696969" svgjs:data="{&quot;leading&quot;:&quot;1.3&quot;}">currently server have symmetric key</text></g><g id="node93" class=""><g id="a_node93"><a xlink:title=" "><polygon fill="none" stroke="#000000" points="4441.2318,-44 3998.3787,-44 3998.3787,0 4441.2318,0 4441.2318,-44"></polygon><text text-anchor="middle" x="4219.8053" y="-11.5" font-family="monospace,monospace" font-size="35.00" fill="#000000" svgjs:data="{&quot;leading&quot;:&quot;1.3&quot;}">Certificate Authority</text></a></g></g><g id="edge65" class=""><path id="SvgjsPath3318" d="M4206.699911279296 -938 H5094.811788720703 L5100.811788720703 -932 V-895 H4206.699911279296 z M5094.811788720703 -938 V-932 H5100.811788720703" stroke="#696969" stroke-width="1" fill="#ffffe0"></path><g id="a_edge65"><a xlink:title=" "></a></g><text text-anchor="middle" x="4653.75585" y="-902.5" font-family="monospace,monospace" font-size="35.00" fill="#696969" svgjs:data="{&quot;leading&quot;:&quot;1.3&quot;}">ca holds private ca key and public ca cert</text></g><g id="edge73" class=""><path id="SvgjsPath3319" d="M4322.035479199219 -833 H4979.118120800781 L4985.118120800781 -827 V-790 H4322.035479199219 z M4979.118120800781 -833 V-827 H4985.118120800781" stroke="#696969" stroke-width="1" fill="#ffffe0"></path><g id="a_edge73"><a xlink:title=" "></a></g><text text-anchor="middle" x="4653.5768" y="-797.5" font-family="monospace,monospace" font-size="35.00" fill="#696969" svgjs:data="{&quot;leading&quot;:&quot;1.3&quot;}">use private ca key signing cert</text></g><g id="edge56" class=""><g id="a_edge56"><a xlink:title=" "></a></g><text text-anchor="middle" x="2633.2614968383787" y="-968.5" font-family="monospace,monospace" font-size="35.00" fill="#000000" svgjs:data="{&quot;leading&quot;:&quot;1.3&quot;}">certificate signing</text><path id="SvgjsPath3074" d="M890.4577 -991 H4229.0524 V-581.0005 H890.4577 z" fill="none" stroke="#000000" stroke-width="1"></path><path id="SvgjsPath3075" d="M890.4577 -991 H1047.4705936767577 V-970 L1026.4705936767577 -949 H890.4577 z" fill="lightgray" stroke="#000000" stroke-width="1"></path><text text-anchor="middle" x="963.964146838379" y="-968.5" font-family="monospace,monospace" font-size="35.00" fill="#000000" svgjs:data="{&quot;leading&quot;:&quot;1.3&quot;}"> &nbsp;strict</text></g><rect id="SvgjsRect3291" width="5096.4835" height="1144.32" x="-4" y="-1140" fill="none" stroke="black" stroke-width="1"></rect><path id="SvgjsPath3310" d="M-4 -1140 H304.0373229980469 V-1101.5 L297.0373229980469 -1094.5 L-4 -1094.5 z" fill="none" stroke="black" stroke-width="1"></path></g></svg></svg>