<?xml version="1.0" encoding="UTF-8" standalone="yes"?><!DOCTYPE svg PUBLIC "-//W3C//DTD SVG 1.1//EN" "http://www.w3.org/Graphics/SVG/1.1/DTD/svg11.dtd" [<!ENTITY quot "&#34;"><!ENTITY amp "&#38;"><!ENTITY apos "&#39;"><!ENTITY lt "&#60;"><!ENTITY gt "&#62;"><!ENTITY nbsp "&#160;">]><svg id="DotUML" width="2946pt" height="892pt" xmlns="http://www.w3.org/2000/svg" version="1.1" xmlns:xlink="http://www.w3.org/1999/xlink" xmlns:svgjs="http://svgjs.com/svgjs"><defs id="SvgjsDefs2420"></defs><svg width="2946pt" height="892pt" viewBox="0 0 2947 893" xmlns="http://www.w3.org/2000/svg" xmlns:xlink="http://www.w3.org/1999/xlink" id="DotUML2" preserveAspectRatio="xMidYMid slice"><desc>SequenceDiagram%20%5Bframe=true%20fontsize=%2220%22%20label=%22https%20workflow%22%5D%20%7B%0A%20%20lifeline%20%22Client%22%20as%20c%20autoactivate%0A%20%20lifeline%20%22Server%22%20as%20s%20autoactivate%0A%20%20lifeline%20%22Certificate%20Authority%22%20as%20ca%20autoactivate%0A%09fragment%20strict%20%22certificate%20signing%22%20%7B%0A%20%20%20%20autonumber%201%201%0A%20%20%20%20s%20--%3E%20s%20%22generated%20private%20server%20key%22%0A%20%20%20%20note%20right%20of%20ca%20%22ca%20holds%20private%20ca%20key%20and%20public%20ca%20cert%22%0A%20%20%09s%20--%3E%20ca%20%22certificate%20signing%20request%22%0A%20%20%20%20note%20left%20%22use%20the%20private%20server%20key%20to%20create%20a%20certificate%20signing%20request%20(CSR)%22%0A%09%09ca%20--%3E%20s%20%22return%20signed%20public%20server%20cert%22%0A%20%20%20%20note%20right%20%22use%20private%20ca%20key%20signing%20cert%22%0A%20%20%20%20note%20left%20of%20s%20%22currently%20server%20have%20private%20key%20and%20public%20cert%22%0A%20%20%20%20autonumber%20stop%0A%20%20%20%20s%20-a-%3E%20ca%20%22(async)every%20body%20can%20get%20public%20ca%20cert%22%0A%20%20%20%20autonumber%20resume%0A%20%20%20%20s%20--%3E%20s%20%22use%20public%20ca%20cert%20verify%20server%20cert%22%0A%20%20%20%20autonumber%20stop%0A%20%20%20%20c%20-a-%3E%20ca%20%22(async)every%20body%20can%20get%20public%20ca%20cert%22%0A%20%09%7D%0A%20%20autonumber%201%201%0A%20%20note%20left%20of%20c%20%22currently%20client%20have%20public%20ca%20cert%22%0A%20%20c%20--%3E%20s%20%22request%20https://server-domain.com%22%0A%20%20s%20--%3E%20c%20%22response%20public%20server%20cert%22%0A%20%20note%20left%20of%20c%20%22use%20public%20ca%20cert%20verify%20public%20server%20cert%22%0A%20%20note%20left%20of%20c%20%22if%20unvalid,%20will%20display%20https%20warning%22%0A%20%20c%20--%3E%20c%20%22generated%20random%20symmetric%20key%22%0A%20%20c%20--%3E%20s%20%22transfer%20encrypted%20symmetric%20key%22%0A%20%20note%20left%20%22use%20public%20server%20cert%20to%20encrypt%20random%20key%22%0A%09s%20--%3E%20s%20%22use%20private%20server%20key%20to%20decrypt%20encrypted%20key%22%0A%20%20note%20right%20of%20s%20%22currently%20server%20have%20symmetric%20key%22%0A%20%20s%20--%3E%20c%20%22use%20symmetric%20key%20to%20encryt%20content%22%0A%20%20c%20--%3E%20c%20%22use%20symmetric%20key%20to%20descrypt%20content%22%0A%7D%20</desc><g id="graph0" class="graph dotUmlFrame dotUmlFrameColorblack" transform="scale(1 1) rotate(0) translate(4.32 887.82)"><polygon fill="#ffffff" stroke="transparent" points="-4.32,4.32 -4.32,-887.82 2941.842,-887.82 2941.842,4.32 -4.32,4.32"></polygon><text text-anchor="middle" x="87.0053939819336" y="-867.984375" font-family="monospace,monospace" font-size="20.00" fill="#000000" svgjs:data="{&quot;leading&quot;:&quot;1.3&quot;}">https workflow</text><g id="node25" class=""><g id="a_node25"><a xlink:title=" "><polygon fill="none" stroke="#000000" points="558.904,-850.5 484.928,-850.5 484.928,-821.5 558.904,-821.5 558.904,-850.5"></polygon><text text-anchor="middle" x="521.916" y="-830" font-family="monospace,monospace" font-size="20.00" fill="#000000" svgjs:data="{&quot;leading&quot;:&quot;1.3&quot;}">Client</text></a></g><line id="SvgjsLine2427" x1="521.9159999999999" y1="-821.5" x2="521.9159999999999" y2="-32.5" stroke="#000000" stroke-dasharray="5,5" stroke-width="1"></line><line id="SvgjsLine2431" x1="1516.7530000000002" y1="-822.5" x2="1516.7530000000002" y2="-32.5" stroke="#000000" stroke-dasharray="5,5" stroke-width="1"></line><line id="SvgjsLine2435" x1="2433.603" y1="-819.5" x2="2433.603" y2="-32.5" stroke="#000000" stroke-dasharray="5,5" stroke-width="1"></line></g><g id="edge92" class=""><path id="SvgjsPath2840" d="M39.07286450195318 -468.015625 H477.1006354980469 L483.1006354980469 -462.015625 V-440.015625 H39.07286450195318 z M477.1006354980469 -468.015625 V-462.015625 H483.1006354980469" stroke="#696969" stroke-width="1" fill="#ffffe0"></path><g id="a_edge92"><a xlink:title=" "></a></g><text text-anchor="middle" x="261.08675000000005" y="-446" font-family="monospace,monospace" font-size="20.00" fill="#696969" svgjs:data="{&quot;leading&quot;:&quot;1.3&quot;}">currently client have public ca cert</text></g><g id="node38" class=""><g id="a_node38"><a xlink:title=" "><polygon fill="none" stroke="#000000" points="522.416,-370.5 521.416,-370.5 521.416,-369.5 522.416,-369.5 522.416,-370.5"></polygon></a></g><g id="node47" class=""><g id="a_node47"><a xlink:title=" "><polygon fill="none" stroke="#000000" points="522.416,-64.5 521.416,-64.5 521.416,-63.5 522.416,-63.5 522.416,-64.5"></polygon></a></g></g><path id="SvgjsPath2574" d="M517.416 -374.5 H526.416 V-59.5 H517.416 z" stroke="#000000" stroke-width="1" fill="white"></path></g><g id="edge104" class=""><path id="SvgjsPath2841" d="M-8.930187255859323 -366.015625 H525.1036872558594 L531.1036872558594 -360.015625 V-338.015625 H-8.930187255859323 z M525.1036872558594 -366.015625 V-360.015625 H531.1036872558594" stroke="#696969" stroke-width="1" fill="#ffffe0"></path><g id="a_edge104"><a xlink:title=" "></a></g><text text-anchor="middle" x="261.08675000000005" y="-344" font-family="monospace,monospace" font-size="20.00" fill="#696969" svgjs:data="{&quot;leading&quot;:&quot;1.3&quot;}">use public ca cert verify public server cert</text></g><g id="edge108" class=""><path id="SvgjsPath2842" d="M27.07208630371099 -329.015625 H489.1014136962891 L495.1014136962891 -323.015625 V-301.015625 H27.07208630371099 z M489.1014136962891 -329.015625 V-323.015625 H495.1014136962891" stroke="#696969" stroke-width="1" fill="#ffffe0"></path><g id="a_edge108"><a xlink:title=" "></a></g><text text-anchor="middle" x="261.08675000000005" y="-307" font-family="monospace,monospace" font-size="20.00" fill="#696969" svgjs:data="{&quot;leading&quot;:&quot;1.3&quot;}">if unvalid, will display https warning</text></g><g id="edge119" class=""><path id="SvgjsPath2843" d="M-8.930217773437448 -258.015625 H525.1037177734376 L531.1037177734376 -252.015625 V-230.015625 H-8.930217773437448 z M525.1037177734376 -258.015625 V-252.015625 H531.1037177734376" stroke="#696969" stroke-width="1" fill="#ffffe0"></path><g id="a_edge119"><a xlink:title=" "></a></g><text text-anchor="middle" x="261.08675000000005" y="-236" font-family="monospace,monospace" font-size="20.00" fill="#696969" svgjs:data="{&quot;leading&quot;:&quot;1.3&quot;}">use public server cert to encrypt random key</text></g><g id="node48" class=""><g id="a_node48"><a xlink:title=" "><polygon fill="none" stroke="#000000" points="558.904,-32.5 484.928,-32.5 484.928,-3.5 558.904,-3.5 558.904,-32.5"></polygon><text text-anchor="middle" x="521.916" y="-12" font-family="monospace,monospace" font-size="20.00" fill="#000000" svgjs:data="{&quot;leading&quot;:&quot;1.3&quot;}">Client</text></a></g></g><g id="node49" class=""><g id="a_node49"><a xlink:title=" "><polygon fill="none" stroke="#000000" points="1553.741,-851.5 1479.765,-851.5 1479.765,-822.5 1553.741,-822.5 1553.741,-851.5"></polygon><text text-anchor="middle" x="1516.753" y="-831" font-family="monospace,monospace" font-size="20.00" fill="#000000" svgjs:data="{&quot;leading&quot;:&quot;1.3&quot;}">Server</text></a></g></g><g id="edge69" class=""><path id="SvgjsPath2844" d="M581.1261290039063 -710.015625 H1451.1816709960938 L1457.1816709960938 -704.015625 V-682.015625 H581.1261290039063 z M1451.1816709960938 -710.015625 V-704.015625 H1457.1816709960938" stroke="#696969" stroke-width="1" fill="#ffffe0"></path><g id="a_edge69"><a xlink:title=" "></a></g><text text-anchor="middle" x="1019.1539" y="-688" font-family="monospace,monospace" font-size="20.00" fill="#696969" svgjs:data="{&quot;leading&quot;:&quot;1.3&quot;}">use the private server key to create a certificate signing request (CSR)</text></g><g id="node53" class=""><g id="a_node53"><a xlink:title=" "><polygon fill="none" stroke="#000000" points="1517.253,-641.5 1516.253,-641.5 1516.253,-640.5 1517.253,-640.5 1517.253,-641.5"></polygon></a></g><g id="node68" class=""><g id="a_node68"><a xlink:title=" "><polygon fill="none" stroke="#000000" points="1517.253,-64.5 1516.253,-64.5 1516.253,-63.5 1517.253,-63.5 1517.253,-64.5"></polygon></a></g></g><path id="SvgjsPath2579" d="M1512.253 -645.5 H1521.253 V-59.5 H1512.253 z" stroke="#000000" stroke-width="1" fill="white"></path></g><g id="edge75" class=""><path id="SvgjsPath2845" d="M719.1350096191406 -636.015625 H1313.1727903808594 L1319.1727903808594 -630.015625 V-608.015625 H719.1350096191406 z M1313.1727903808594 -636.015625 V-630.015625 H1319.1727903808594" stroke="#696969" stroke-width="1" fill="#ffffe0"></path><g id="a_edge75"><a xlink:title=" "></a></g><text text-anchor="middle" x="1019.1539" y="-614" font-family="monospace,monospace" font-size="20.00" fill="#696969" svgjs:data="{&quot;leading&quot;:&quot;1.3&quot;}">currently server have private key and public cert</text></g><g id="edge87" class=""><g id="a_edge87"><a xlink:title=" "><path fill="none" stroke="#000000" d="M522.6974 -504 H2418.8203"></path><polygon fill="#000000" stroke="#000000" points="2428.8397,-504 2418.8397,-508.5001 2423.8397,-504 2418.8397,-504.0001 2418.8397,-504.0001 2418.8397,-504.0001 2423.8397,-504 2418.8397,-499.5001 2428.8397,-504 2428.8397,-504"></polygon></a></g><text text-anchor="middle" x="1472.75885" y="-510" font-family="monospace,monospace" font-size="20.00" fill="#000000" svgjs:data="{&quot;leading&quot;:&quot;1.3&quot;}">(async)every body can get public ca cert</text></g><g id="edge90" class=""></g><g id="edge97" class=""><g id="a_edge97"><a xlink:title=" "><path fill="none" stroke="#000000" d="M526.6371 -408 H1501.8418"></path><polygon fill="#000000" stroke="#000000" points="1502.0542,-411.5001 1512.0542,-408 1502.0542,-404.5001 1502.0542,-411.5001"></polygon></a></g><text text-anchor="middle" x="1014.23945" y="-414" font-family="monospace,monospace" font-size="20.00" fill="#000000" svgjs:data="{&quot;leading&quot;:&quot;1.3&quot;}">1: request https://server-domain.com</text></g><g id="edge101" class=""><g id="a_edge101"><a xlink:title=" "><path fill="none" stroke="#000000" d="M536.9118 -369.94605 H1512.0542"></path><polygon fill="#000000" stroke="#000000" points="536.6193,-366.4461 526.6371,-369.9964 536.6545,-373.446 536.6193,-366.4461"></polygon></a></g><text text-anchor="middle" x="1024.483" y="-375" font-family="monospace,monospace" font-size="20.00" fill="#000000" svgjs:data="{&quot;leading&quot;:&quot;1.3&quot;}">2: response public server cert</text></g><g id="edge113" class=""><g id="a_edge113"><a xlink:title=" "><polygon fill="#000000" stroke="#000000" points="532.6441,-266.5217 522.6371,-270.0014 532.63,-273.5216 532.6441,-266.5217"></polygon></a></g><text text-anchor="middle" x="950.846" y="-277" font-family="monospace,monospace" font-size="20.00" fill="#000000" svgjs:data="{&quot;leading&quot;:&quot;1.3&quot;}">3: generated random symmetric key</text><path id="SvgjsPath2480" d="M522.6371 -281.9986 H542.6371 V-271.9986 H522.6371" fill="none" stroke="#000000" stroke-width="1"></path></g><g id="edge116" class=""><g id="a_edge116"><a xlink:title=" "><path fill="none" stroke="#000000" d="M526.6371 -233.94615 H1501.8418"></path><polygon fill="#000000" stroke="#000000" points="1502.0367,-237.4461 1512.0542,-233.9965 1502.0719,-230.4462 1502.0367,-237.4461"></polygon></a></g><text text-anchor="middle" x="1014.23945" y="-239" font-family="monospace,monospace" font-size="20.00" fill="#000000" svgjs:data="{&quot;leading&quot;:&quot;1.3&quot;}">4: transfer encrypted symmetric key</text></g><g id="edge129" class=""><g id="a_edge129"><a xlink:title=" "><path fill="none" stroke="#000000" d="M536.9118 -134 H1512.0542"></path><polygon fill="#000000" stroke="#000000" points="536.6371,-130.5001 526.6371,-134 536.637,-137.5001 536.6371,-130.5001"></polygon></a></g><text text-anchor="middle" x="1024.483" y="-140" font-family="monospace,monospace" font-size="20.00" fill="#000000" svgjs:data="{&quot;leading&quot;:&quot;1.3&quot;}">6: use symmetric key to encryt content</text></g><g id="edge133" class=""><g id="a_edge133"><a xlink:title=" "><polygon fill="#000000" stroke="#000000" points="532.6335,-88.4891 522.6371,-91.9993 532.6406,-95.4891 532.6335,-88.4891"></polygon></a></g><text text-anchor="middle" x="950.846" y="-97" font-family="monospace,monospace" font-size="20.00" fill="#000000" svgjs:data="{&quot;leading&quot;:&quot;1.3&quot;}">7: use symmetric key to descrypt content</text><path id="SvgjsPath2485" d="M522.6371 -101.9889 H542.6371 V-91.9889 H522.6371" fill="none" stroke="#000000" stroke-width="1"></path></g><g id="node69" class=""><g id="a_node69"><a xlink:title=" "><polygon fill="none" stroke="#000000" points="1553.741,-32.5 1479.765,-32.5 1479.765,-3.5 1553.741,-3.5 1553.741,-32.5"></polygon><text text-anchor="middle" x="1516.753" y="-12" font-family="monospace,monospace" font-size="20.00" fill="#000000" svgjs:data="{&quot;leading&quot;:&quot;1.3&quot;}">Server</text></a></g></g><g id="node70" class=""><g id="a_node70"><a xlink:title=" "><polygon fill="none" stroke="#000000" points="2560.561,-848.5 2306.645,-848.5 2306.645,-819.5 2560.561,-819.5 2560.561,-848.5"></polygon><text text-anchor="middle" x="2433.603" y="-828" font-family="monospace,monospace" font-size="20.00" fill="#000000" svgjs:data="{&quot;leading&quot;:&quot;1.3&quot;}">Certificate Authority</text></a></g></g><g id="edge60" class=""><g id="a_edge60"><a xlink:title=" "><polygon fill="#000000" stroke="#000000" points="1527.4252,-743.5234 1517.4175,-747.0014 1527.4098,-750.5234 1527.4252,-743.5234"></polygon></a></g><text text-anchor="middle" x="1998.674" y="-754" font-family="monospace,monospace" font-size="20.00" fill="#000000" svgjs:data="{&quot;leading&quot;:&quot;1.3&quot;}">1: generated private server key</text><path id="SvgjsPath2490" d="M1517.4175 -758.9986 H1537.4175 V-748.9986 H1517.4175" fill="none" stroke="#000000" stroke-width="1"></path></g><g id="node74" class=""><g id="a_node74"><a xlink:title=" "><polygon fill="none" stroke="#000000" points="2434.103,-682.5 2433.103,-682.5 2433.103,-681.5 2434.103,-681.5 2434.103,-682.5"></polygon></a></g><g id="node92" class=""><g id="a_node92"><a xlink:title=" "><polygon fill="none" stroke="#000000" points="2434.103,-64.5 2433.103,-64.5 2433.103,-63.5 2434.103,-63.5 2434.103,-64.5"></polygon></a></g></g><path id="SvgjsPath2583" d="M2429.103 -686.5 H2438.103 V-59.5 H2429.103 z" stroke="#000000" stroke-width="1" fill="white"></path></g><g id="edge67" class=""><g id="a_edge67"><a xlink:title=" "><path fill="none" stroke="#000000" d="M1521.4175 -682 H2418.9353"></path><polygon fill="#000000" stroke="#000000" points="2418.959,-685.5001 2428.959,-682 2418.9589,-678.5001 2418.959,-685.5001"></polygon></a></g><text text-anchor="middle" x="1970.1764" y="-688" font-family="monospace,monospace" font-size="20.00" fill="#000000" svgjs:data="{&quot;leading&quot;:&quot;1.3&quot;}">2: certificate signing request</text></g><g id="edge72" class=""><g id="a_edge72"><a xlink:title=" "><path fill="none" stroke="#000000" d="M1531.5008 -640.9766 H2428.959"></path><polygon fill="#000000" stroke="#000000" points="1531.4098,-637.4766 1521.4175,-640.9986 1531.4252,-644.4766 1531.4098,-637.4766"></polygon></a></g><text text-anchor="middle" x="1980.2298999999998" y="-646" font-family="monospace,monospace" font-size="20.00" fill="#000000" svgjs:data="{&quot;leading&quot;:&quot;1.3&quot;}">3: return signed public server cert</text></g><g id="edge80" class=""><g id="a_edge80"><a xlink:title=" "><path fill="none" stroke="#000000" d="M1521.4175 -574 H2418.9353"></path><polygon fill="#000000" stroke="#000000" points="2428.959,-574 2418.959,-578.5001 2423.959,-574 2418.959,-574.0001 2418.959,-574.0001 2418.959,-574.0001 2423.959,-574 2418.9589,-569.5001 2428.959,-574 2428.959,-574"></polygon></a></g><text text-anchor="middle" x="1970.1764" y="-580" font-family="monospace,monospace" font-size="20.00" fill="#000000" svgjs:data="{&quot;leading&quot;:&quot;1.3&quot;}">(async)every body can get public ca cert</text></g><g id="edge84" class=""><g id="a_edge84"><a xlink:title=" "><polygon fill="#000000" stroke="#000000" points="1527.3708,-539.3606 1517.4175,-542.9913 1527.4625,-546.36 1527.3708,-539.3606"></polygon></a></g><text text-anchor="middle" x="1998.674" y="-546" font-family="monospace,monospace" font-size="20.00" fill="#000000" svgjs:data="{&quot;leading&quot;:&quot;1.3&quot;}">4: use public ca cert verify server cert</text><path id="SvgjsPath2495" d="M1517.4175 -552.8593 H1537.4175 V-542.8593 H1517.4175" fill="none" stroke="#000000" stroke-width="1"></path></g><g id="edge122" class=""><g id="a_edge122"><a xlink:title=" "><polygon fill="#000000" stroke="#000000" points="1527.4214,-198.5117 1517.4175,-202.0007 1527.4137,-205.5117 1527.4214,-198.5117"></polygon></a></g><text text-anchor="middle" x="1998.674" y="-208" font-family="monospace,monospace" font-size="20.00" fill="#000000" svgjs:data="{&quot;leading&quot;:&quot;1.3&quot;}">5: use private server key to decrypt encrypted key</text><path id="SvgjsPath2500" d="M1517.4175 -212.9993 H1537.4175 V-202.9993 H1517.4175" fill="none" stroke="#000000" stroke-width="1"></path></g><g id="edge126" class=""><path id="SvgjsPath2846" d="M1758.9979959716798 -192.015625 H2185.0250040283204 L2191.0250040283204 -186.015625 V-164.015625 H1758.9979959716798 z M2185.0250040283204 -192.015625 V-186.015625 H2191.0250040283204" stroke="#696969" stroke-width="1" fill="#ffffe0"></path><g id="a_edge126"><a xlink:title=" "></a></g><text text-anchor="middle" x="1975.0115" y="-170" font-family="monospace,monospace" font-size="20.00" fill="#696969" svgjs:data="{&quot;leading&quot;:&quot;1.3&quot;}">currently server have symmetric key</text></g><g id="node93" class=""><g id="a_node93"><a xlink:title=" "><polygon fill="none" stroke="#000000" points="2560.561,-32.5 2306.645,-32.5 2306.645,-3.5 2560.561,-3.5 2560.561,-32.5"></polygon><text text-anchor="middle" x="2433.603" y="-12" font-family="monospace,monospace" font-size="20.00" fill="#000000" svgjs:data="{&quot;leading&quot;:&quot;1.3&quot;}">Certificate Authority</text></a></g></g><g id="edge65" class=""><path id="SvgjsPath2847" d="M2427.1792299072267 -744.015625 H2937.2116700927736 L2943.2116700927736 -738.015625 V-716.015625 H2427.1792299072267 z M2937.2116700927736 -744.015625 V-738.015625 H2943.2116700927736" stroke="#696969" stroke-width="1" fill="#ffffe0"></path><g id="a_edge65"><a xlink:title=" "></a></g><text text-anchor="middle" x="2685.19545" y="-722" font-family="monospace,monospace" font-size="20.00" fill="#696969" svgjs:data="{&quot;leading&quot;:&quot;1.3&quot;}">ca holds private ca key and public ca cert</text></g><g id="edge73" class=""><path id="SvgjsPath2848" d="M2493.183502368164 -667.015625 H2871.207397631836 L2877.207397631836 -661.015625 V-639.015625 H2493.183502368164 z M2871.207397631836 -667.015625 V-661.015625 H2877.207397631836" stroke="#696969" stroke-width="1" fill="#ffffe0"></path><g id="a_edge73"><a xlink:title=" "></a></g><text text-anchor="middle" x="2685.19545" y="-645" font-family="monospace,monospace" font-size="20.00" fill="#696969" svgjs:data="{&quot;leading&quot;:&quot;1.3&quot;}">use private ca key signing cert</text></g><g id="edge56" class=""><g id="a_edge56"><a xlink:title=" "></a></g><text text-anchor="middle" x="1519.7617758728027" y="-773.984375" font-family="monospace,monospace" font-size="20.00" fill="#000000" svgjs:data="{&quot;leading&quot;:&quot;1.3&quot;}">certificate signing</text><path id="SvgjsPath2603" d="M512.6974 -789 H2442.8203 V-468.0012 H512.6974 z" fill="none" stroke="#000000" stroke-width="1"></path><path id="SvgjsPath2604" d="M512.6974 -789 H606.7032517456055 V-777 L594.7032517456055 -765 H512.6974 z" fill="lightgray" stroke="#000000" stroke-width="1"></path><text text-anchor="middle" x="554.7003258728028" y="-773.984375" font-family="monospace,monospace" font-size="20.00" fill="#000000" svgjs:data="{&quot;leading&quot;:&quot;1.3&quot;}"> &nbsp;strict</text></g><rect id="SvgjsRect2820" width="2945.842" height="891.32" x="-4" y="-887" fill="none" stroke="black" stroke-width="1"></rect><path id="SvgjsPath2839" d="M-4 -887 H178.0107879638672 V-868 L171.0107879638672 -861 L-4 -861 z" fill="none" stroke="black" stroke-width="1"></path></g></svg></svg>