<?xml version="1.0" encoding="UTF-8" standalone="yes"?><!DOCTYPE svg PUBLIC "-//W3C//DTD SVG 1.1//EN" "http://www.w3.org/Graphics/SVG/1.1/DTD/svg11.dtd" [<!ENTITY quot "&#34;"><!ENTITY amp "&#38;"><!ENTITY apos "&#39;"><!ENTITY lt "&#60;"><!ENTITY gt "&#62;"><!ENTITY nbsp "&#160;">]><svg id="DotUML" width="1590pt" height="948pt" xmlns="http://www.w3.org/2000/svg" version="1.1" xmlns:xlink="http://www.w3.org/1999/xlink" xmlns:svgjs="http://svgjs.com/svgjs"><defs id="SvgjsDefs90034"></defs><svg width="1590pt" height="948pt" viewBox="0 0 1591 948" xmlns="http://www.w3.org/2000/svg" xmlns:xlink="http://www.w3.org/1999/xlink" id="DotUML2" preserveAspectRatio="xMidYMid slice"><desc>SequenceDiagram%20%5Bframe=true%20label=%22two-way%20tls%22%5D%20%7B%0A%20%20lifeline%20%22Client%22%20as%20c%20autoactivate%0A%20%20lifeline%20%22Server%22%20as%20s%20autoactivate%0A%20%20lifeline%20%22Certificate%20Authority%22%20as%20ca%20autoactivate%0A%09fragment%20strict%20%22certificate%20signing%22%20%7B%0A%20%20%20%20autonumber%201%201%0A%20%20%20%20s%20--%3E%20s%20%22generated%20private%20server%20key%22%0A%20%20%20%20note%20right%20of%20ca%20%22ca%20holds%20private%20ca%20key%20and%20public%20ca%20cert%22%0A%20%20%09s%20--%3E%20ca%20%22certificate%20signing%20request%22%0A%20%20%20%20note%20left%20%22use%20the%20private%20server%20key%20to%20create%20a%20certificate%20signing%20request%20(CSR)%22%0A%09%09ca%20--%3E%20s%20%22return%20signed%20public%20server%20cert%22%0A%20%20%20%20note%20right%20%22use%20private%20ca%20key%20signing%20cert%22%0A%20%20%20%20note%20left%20of%20s%20%22currently%20server%20have%20private%20key%20and%20public%20cert%22%0A%20%20%20%20autonumber%20stop%0A%20%20%20%20s%20-a-%3E%20ca%20%22(async)every%20body%20can%20get%20public%20ca%20cert%22%0A%20%20%20%20autonumber%20resume%0A%20%20%20%20s%20--%3E%20s%20%22use%20public%20ca%20cert%20verify%20server%20cert%22%0A%20%20%20%20autonumber%20stop%0A%20%20%20%20c%20-a-%3E%20ca%20%22(async)every%20body%20can%20get%20public%20ca%20cert%22%0A%20%09%7D%0A%20%20autonumber%201%201%0A%20%20note%20left%20of%20c%20%22currently%20client%20have%20public%20ca%20cert%22%0A%20%20note%20right%20of%20s%20%22currently%20server%20have%20client%20ca%22%20%5B%20fontcolor=blue%5D%0A%20%20c%20--%3E%20s%20%22request%20https://server-domain.com%22%0A%20%20s%20--%3E%20c%20%22response%20public%20server%20cert%22%0A%20%20note%20left%20of%20c%20%22use%20public%20ca%20cert%20verify%20public%20server%20cert%22%0A%20%20note%20left%20of%20c%20%22if%20unvalid,%20will%20display%20https%20warning%22%0A%20%20s%20--%3E%20c%20%22required%20a%20cert%22%20%5B%20color=blue%20fontcolor=blue%5D%0A%20%20c%20--%3E%20s%20%22response%20a%20public%20client%20cert%22%20%5B%20color=blue%20fontcolor=blue%5D%0A%20%20c%20--%3E%20c%20%22generated%20random%20symmetric%20key%22%0A%20%20c%20--%3E%20s%20%22transfer%20encrypted%20symmetric%20key%22%0A%20%20note%20left%20%22use%20public%20server%20cert%20to%20encrypt%20random%20key%22%0A%20%20c%20--%3E%20s%20%22sends%20a%20signed%20handshake%20message%22%0A%20%20note%20left%20%22use%20private%20client%20key%20sign%20previous%20handshake%20messages%22%0A%09s%20--%3E%20s%20%22use%20client%20ca%20cert%20verify%20public%20client%20cert%22%20%5B%20color=blue%20fontcolor=blue%5D%0A%09s%20--%3E%20s%20%22use%20private%20server%20key%20to%20decrypt%20encrypted%20key%22%0A%09s%20--%3E%20s%20%22use%20public%20client%20cert%20to%20verify%20signed%20messages%22%20%5B%20color=blue%20fontcolor=blue%5D%0A%20%20note%20right%20of%20s%20%22currently%20server%20have%20symmetric%20key%22%0A%20%20s%20--%3E%20c%20%22use%20symmetric%20key%20to%20encryt%20content%22%0A%20%20c%20--%3E%20c%20%22use%20symmetric%20key%20to%20descrypt%20content%22%0A%7D%20</desc><g id="graph0" class="graph dotUmlFrame dotUmlFrameColorblack" transform="scale(1 1) rotate(0) translate(4.32 943.32)"><polygon fill="#ffffff" stroke="transparent" points="-4.32,4.32 -4.32,-943.32 1586.068,-943.32 1586.068,4.32 -4.32,4.32"></polygon><text text-anchor="middle" x="35.99710464477539" y="-933" font-family="monospace,monospace" font-size="10.00" fill="#000000" svgjs:data="{&quot;leading&quot;:&quot;1.3&quot;}">two-way tls</text><g id="node31" class=""><g id="a_node31"><a xlink:title=" "><polygon fill="none" stroke="#000000" points="354.941,-915.5 316.953,-915.5 316.953,-886.5 354.941,-886.5 354.941,-915.5"></polygon><text text-anchor="middle" x="335.947" y="-898" font-family="monospace,monospace" font-size="10.00" fill="#000000" svgjs:data="{&quot;leading&quot;:&quot;1.3&quot;}">Client</text></a></g><line id="SvgjsLine90041" x1="335.947" y1="-886.5" x2="335.947" y2="-32.5" stroke="#000000" stroke-dasharray="5,5" stroke-width="1"></line><line id="SvgjsLine90045" x1="841.8655" y1="-886.5" x2="841.8655" y2="-32.5" stroke="#000000" stroke-dasharray="5,5" stroke-width="1"></line><line id="SvgjsLine90049" x1="1320.7885" y1="-886.5" x2="1320.7885" y2="-32.5" stroke="#000000" stroke-dasharray="5,5" stroke-width="1"></line></g><g id="edge104" class=""><path id="SvgjsPath90557" d="M54.051325708007795 -580 H276.03237429199214 L282.03237429199214 -574 V-562 H54.051325708007795 z M276.03237429199214 -580 V-574 H282.03237429199214" stroke="#696969" stroke-width="1" fill="#ffffe0"></path><g id="a_edge104"><a xlink:title=" "></a></g><text text-anchor="middle" x="168.04184999999998" y="-567" font-family="monospace,monospace" font-size="10.00" fill="#696969" svgjs:data="{&quot;leading&quot;:&quot;1.3&quot;}">currently client have public ca cert</text></g><g id="node45" class=""><g id="a_node45"><a xlink:title=" "><polygon fill="none" stroke="#000000" points="336.447,-477.5 335.447,-477.5 335.447,-476.5 336.447,-476.5 336.447,-477.5"></polygon></a></g><g id="node59" class=""><g id="a_node59"><a xlink:title=" "><polygon fill="none" stroke="#000000" points="336.447,-64.5 335.447,-64.5 335.447,-63.5 336.447,-63.5 336.447,-64.5"></polygon></a></g></g><path id="SvgjsPath90225" d="M331.447 -481.5 H340.447 V-59.5 H331.447 z" stroke="#000000" stroke-width="1" fill="white"></path></g><g id="edge120" class=""><path id="SvgjsPath90558" d="M30.05343142089842 -464 H300.0302685791015 L306.0302685791015 -458 V-446 H30.05343142089842 z M300.0302685791015 -464 V-458 H306.0302685791015" stroke="#696969" stroke-width="1" fill="#ffffe0"></path><g id="a_edge120"><a xlink:title=" "></a></g><text text-anchor="middle" x="168.04184999999998" y="-451" font-family="monospace,monospace" font-size="10.00" fill="#696969" svgjs:data="{&quot;leading&quot;:&quot;1.3&quot;}">use public ca cert verify public server cert</text></g><g id="edge124" class=""><path id="SvgjsPath90559" d="M48.05185213623045 -434 H282.0318478637695 L288.0318478637695 -428 V-416 H48.05185213623045 z M282.0318478637695 -434 V-428 H288.0318478637695" stroke="#696969" stroke-width="1" fill="#ffffe0"></path><g id="a_edge124"><a xlink:title=" "></a></g><text text-anchor="middle" x="168.04184999999998" y="-421" font-family="monospace,monospace" font-size="10.00" fill="#696969" svgjs:data="{&quot;leading&quot;:&quot;1.3&quot;}">if unvalid, will display https warning</text></g><g id="edge143" class=""><path id="SvgjsPath90560" d="M30.05343142089842 -315 H300.0302685791015 L306.0302685791015 -309 V-297 H30.05343142089842 z M300.0302685791015 -315 V-309 H306.0302685791015" stroke="#696969" stroke-width="1" fill="#ffffe0"></path><g id="a_edge143"><a xlink:title=" "></a></g><text text-anchor="middle" x="168.04184999999998" y="-302" font-family="monospace,monospace" font-size="10.00" fill="#696969" svgjs:data="{&quot;leading&quot;:&quot;1.3&quot;}">use public server cert to encrypt random key</text></g><g id="edge147" class=""><path id="SvgjsPath90561" d="M-2.943669409179705 -285 H333.02736940917964 L339.02736940917964 -279 V-267 H-2.943669409179705 z M333.02736940917964 -285 V-279 H339.02736940917964" stroke="#696969" stroke-width="1" fill="#ffffe0"></path><g id="a_edge147"><a xlink:title=" "></a></g><text text-anchor="middle" x="168.04184999999998" y="-272" font-family="monospace,monospace" font-size="10.00" fill="#696969" svgjs:data="{&quot;leading&quot;:&quot;1.3&quot;}">use private client key sign previous handshake messages</text></g><g id="node60" class=""><g id="a_node60"><a xlink:title=" "><polygon fill="none" stroke="#000000" points="354.941,-32.5 316.953,-32.5 316.953,-3.5 354.941,-3.5 354.941,-32.5"></polygon><text text-anchor="middle" x="335.947" y="-15" font-family="monospace,monospace" font-size="10.00" fill="#000000" svgjs:data="{&quot;leading&quot;:&quot;1.3&quot;}">Client</text></a></g></g><g id="node61" class=""><g id="a_node61"><a xlink:title=" "><polygon fill="none" stroke="#000000" points="860.8595,-915.5 822.8715,-915.5 822.8715,-886.5 860.8595,-886.5 860.8595,-915.5"></polygon><text text-anchor="middle" x="841.8655" y="-898" font-family="monospace,monospace" font-size="10.00" fill="#000000" svgjs:data="{&quot;leading&quot;:&quot;1.3&quot;}">Server</text></a></g></g><g id="edge81" class=""><path id="SvgjsPath90562" d="M366.8076014160156 -784 H804.7696985839843 L810.7696985839843 -778 V-766 H366.8076014160156 z M804.7696985839843 -784 V-778 H810.7696985839843" stroke="#696969" stroke-width="1" fill="#ffffe0"></path><g id="a_edge81"><a xlink:title=" "></a></g><text text-anchor="middle" x="588.78865" y="-771" font-family="monospace,monospace" font-size="10.00" fill="#696969" svgjs:data="{&quot;leading&quot;:&quot;1.3&quot;}">use the private server key to create a certificate signing request (CSR)</text></g><g id="node65" class=""><g id="a_node65"><a xlink:title=" "><polygon fill="none" stroke="#000000" points="842.3655,-737.5 841.3655,-737.5 841.3655,-736.5 842.3655,-736.5 842.3655,-737.5"></polygon></a></g><g id="node86" class=""><g id="a_node86"><a xlink:title=" "><polygon fill="none" stroke="#000000" points="842.3655,-64.5 841.3655,-64.5 841.3655,-63.5 842.3655,-63.5 842.3655,-64.5"></polygon></a></g></g><path id="SvgjsPath90230" d="M837.3655 -741.5 H846.3655 V-59.5 H837.3655 z" stroke="#000000" stroke-width="1" fill="white"></path></g><g id="edge87" class=""><path id="SvgjsPath90563" d="M435.80155893554684 -725 H735.7757410644531 L741.7757410644531 -719 V-707 H435.80155893554684 z M735.7757410644531 -725 V-719 H741.7757410644531" stroke="#696969" stroke-width="1" fill="#ffffe0"></path><g id="a_edge87"><a xlink:title=" "></a></g><text text-anchor="middle" x="588.78865" y="-712" font-family="monospace,monospace" font-size="10.00" fill="#696969" svgjs:data="{&quot;leading&quot;:&quot;1.3&quot;}">currently server have private key and public cert</text></g><g id="edge99" class=""><g id="a_edge99"><a xlink:title=" "><path fill="none" stroke="#000000" d="M336.6608 -622.989 H1305.9869"></path><polygon fill="#000000" stroke="#000000" points="1316.0967,-622.9993 1306.0921,-627.489 1311.0967,-622.9942 1306.0967,-622.989 1306.0967,-622.989 1306.0967,-622.989 1311.0967,-622.9942 1306.1013,-618.489 1316.0967,-622.9993 1316.0967,-622.9993"></polygon></a></g><text text-anchor="middle" x="823.32385" y="-625" font-family="monospace,monospace" font-size="10.00" fill="#000000" svgjs:data="{&quot;leading&quot;:&quot;1.3&quot;}">(async)every body can get public ca cert</text></g><g id="edge102" class=""></g><g id="edge113" class=""><g id="a_edge113"><a xlink:title=" "><path fill="none" stroke="#000000" d="M340.7677 -507.9781 H826.7819"></path><polygon fill="#000000" stroke="#000000" points="827.0756,-511.4786 837.0825,-507.9985 827.0895,-504.4786 827.0756,-511.4786"></polygon></a></g><text text-anchor="middle" x="583.7747999999999" y="-510" font-family="monospace,monospace" font-size="10.00" fill="#000000" svgjs:data="{&quot;leading&quot;:&quot;1.3&quot;}">1: request https://server-domain.com</text></g><g id="edge117" class=""><g id="a_edge117"><a xlink:title=" "><path fill="none" stroke="#000000" d="M351.165 -477 H837.0825"></path><polygon fill="#000000" stroke="#000000" points="350.7677,-473.5001 340.7677,-477 350.7677,-480.5001 350.7677,-473.5001"></polygon></a></g><text text-anchor="middle" x="594.12375" y="-480" font-family="monospace,monospace" font-size="10.00" fill="#000000" svgjs:data="{&quot;leading&quot;:&quot;1.3&quot;}">2: response public server cert</text></g><g id="edge129" class=""><g id="a_edge129"><a xlink:title=" "><path fill="none" stroke="#0000ff" d="M351.165 -391 H837.0825"></path><polygon fill="#0000ff" stroke="#0000ff" points="350.7677,-387.5001 340.7677,-391 350.7677,-394.5001 350.7677,-387.5001"></polygon></a></g><text text-anchor="middle" x="594.12375" y="-394" font-family="monospace,monospace" font-size="10.00" fill="#0000ff" svgjs:data="{&quot;leading&quot;:&quot;1.3&quot;}">3: required a cert</text></g><g id="edge133" class=""><g id="a_edge133"><a xlink:title=" "><path fill="none" stroke="#0000ff" d="M340.7677 -361 H826.7819"></path><polygon fill="#0000ff" stroke="#0000ff" points="827.0826,-364.5001 837.0825,-361 827.0825,-357.5001 827.0826,-364.5001"></polygon></a></g><text text-anchor="middle" x="583.7747999999999" y="-364" font-family="monospace,monospace" font-size="10.00" fill="#0000ff" svgjs:data="{&quot;leading&quot;:&quot;1.3&quot;}">4: response a public client cert</text></g><g id="edge137" class=""><g id="a_edge137"><a xlink:title=" "><polygon fill="#000000" stroke="#000000" points="346.7677,-326.5001 336.7677,-330 346.7677,-333.5001 346.7677,-326.5001"></polygon></a></g><text text-anchor="middle" x="554.912" y="-333" font-family="monospace,monospace" font-size="10.00" fill="#000000" svgjs:data="{&quot;leading&quot;:&quot;1.3&quot;}">5: generated random symmetric key</text><path id="SvgjsPath90105" d="M336.7677 -340 H356.7677 V-330 H336.7677" fill="none" stroke="#000000" stroke-width="1"></path></g><g id="edge140" class=""><g id="a_edge140"><a xlink:title=" "><path fill="none" stroke="#000000" d="M340.7677 -299 H826.7819"></path><polygon fill="#000000" stroke="#000000" points="827.0826,-302.5001 837.0825,-299 827.0825,-295.5001 827.0826,-302.5001"></polygon></a></g><text text-anchor="middle" x="583.7747999999999" y="-302" font-family="monospace,monospace" font-size="10.00" fill="#000000" svgjs:data="{&quot;leading&quot;:&quot;1.3&quot;}">6: transfer encrypted symmetric key</text></g><g id="edge144" class=""><g id="a_edge144"><a xlink:title=" "><path fill="none" stroke="#000000" d="M340.7677 -268 H826.7819"></path><polygon fill="#000000" stroke="#000000" points="827.0826,-271.5001 837.0825,-268 827.0825,-264.5001 827.0826,-271.5001"></polygon></a></g><text text-anchor="middle" x="583.7747999999999" y="-271" font-family="monospace,monospace" font-size="10.00" fill="#000000" svgjs:data="{&quot;leading&quot;:&quot;1.3&quot;}">7: sends a signed handshake message</text></g><g id="edge165" class=""><g id="a_edge165"><a xlink:title=" "><path fill="none" stroke="#000000" d="M351.165 -123 H837.0825"></path><polygon fill="#000000" stroke="#000000" points="350.7677,-119.5001 340.7677,-123 350.7677,-126.5001 350.7677,-119.5001"></polygon></a></g><text text-anchor="middle" x="594.12375" y="-126" font-family="monospace,monospace" font-size="10.00" fill="#000000" svgjs:data="{&quot;leading&quot;:&quot;1.3&quot;}">11: use symmetric key to encryt content</text></g><g id="edge169" class=""><g id="a_edge169"><a xlink:title=" "><polygon fill="#000000" stroke="#000000" points="346.7607,-89.4785 336.7677,-92.9984 346.7746,-96.4785 346.7607,-89.4785"></polygon></a></g><text text-anchor="middle" x="554.912" y="-95" font-family="monospace,monospace" font-size="10.00" fill="#000000" svgjs:data="{&quot;leading&quot;:&quot;1.3&quot;}">12: use symmetric key to descrypt content</text><path id="SvgjsPath90110" d="M336.7677 -102.9778 H356.7677 V-92.9778 H336.7677" fill="none" stroke="#000000" stroke-width="1"></path></g><g id="node87" class=""><g id="a_node87"><a xlink:title=" "><polygon fill="none" stroke="#000000" points="860.8595,-32.5 822.8715,-32.5 822.8715,-3.5 860.8595,-3.5 860.8595,-32.5"></polygon><text text-anchor="middle" x="841.8655" y="-15" font-family="monospace,monospace" font-size="10.00" fill="#000000" svgjs:data="{&quot;leading&quot;:&quot;1.3&quot;}">Server</text></a></g></g><g id="node88" class=""><g id="a_node88"><a xlink:title=" "><polygon fill="none" stroke="#000000" points="1384.7675,-915.5 1256.8095,-915.5 1256.8095,-886.5 1384.7675,-886.5 1384.7675,-915.5"></polygon><text text-anchor="middle" x="1320.7885" y="-898" font-family="monospace,monospace" font-size="10.00" fill="#000000" svgjs:data="{&quot;leading&quot;:&quot;1.3&quot;}">Certificate Authority</text></a></g></g><g id="edge72" class=""><g id="a_edge72"><a xlink:title=" "><polygon fill="#000000" stroke="#000000" points="852.6424,-822.5001 842.6424,-826 852.6424,-829.5001 852.6424,-822.5001"></polygon></a></g><text text-anchor="middle" x="1092.825" y="-829" font-family="monospace,monospace" font-size="10.00" fill="#000000" svgjs:data="{&quot;leading&quot;:&quot;1.3&quot;}">1: generated private server key</text><path id="SvgjsPath90115" d="M842.6424 -836 H862.6424 V-826 H842.6424" fill="none" stroke="#000000" stroke-width="1"></path></g><g id="node92" class=""><g id="a_node92"><a xlink:title=" "><polygon fill="none" stroke="#000000" points="1321.2885,-768.5 1320.2885,-768.5 1320.2885,-767.5 1321.2885,-767.5 1321.2885,-768.5"></polygon></a></g><g id="node116" class=""><g id="a_node116"><a xlink:title=" "><polygon fill="none" stroke="#000000" points="1321.2885,-64.5 1320.2885,-64.5 1320.2885,-63.5 1321.2885,-63.5 1321.2885,-64.5"></polygon></a></g></g><path id="SvgjsPath90234" d="M1316.2885 -772.5 H1325.2885 V-59.5 H1316.2885 z" stroke="#000000" stroke-width="1" fill="white"></path></g><g id="edge79" class=""><g id="a_edge79"><a xlink:title=" "><path fill="none" stroke="#000000" d="M846.6424 -768 H1305.8623"></path><polygon fill="#000000" stroke="#000000" points="1306.0473,-771.5001 1316.0473,-768 1306.0473,-764.5001 1306.0473,-771.5001"></polygon></a></g><text text-anchor="middle" x="1076.25235" y="-771" font-family="monospace,monospace" font-size="10.00" fill="#000000" svgjs:data="{&quot;leading&quot;:&quot;1.3&quot;}">2: certificate signing request</text></g><g id="edge84" class=""><g id="a_edge84"><a xlink:title=" "><path fill="none" stroke="#000000" d="M856.9213 -737 H1316.0473"></path><polygon fill="#000000" stroke="#000000" points="856.6424,-733.5001 846.6424,-737 856.6424,-740.5001 856.6424,-733.5001"></polygon></a></g><text text-anchor="middle" x="1086.4843" y="-740" font-family="monospace,monospace" font-size="10.00" fill="#000000" svgjs:data="{&quot;leading&quot;:&quot;1.3&quot;}">3: return signed public server cert</text></g><g id="edge92" class=""><g id="a_edge92"><a xlink:title=" "><path fill="none" stroke="#000000" d="M846.6424 -681 H1305.8623"></path><polygon fill="#000000" stroke="#000000" points="1316.0473,-681 1306.0474,-685.5001 1311.0473,-681 1306.0473,-681.0001 1306.0473,-681.0001 1306.0473,-681.0001 1311.0473,-681 1306.0473,-676.5001 1316.0473,-681 1316.0473,-681"></polygon></a></g><text text-anchor="middle" x="1076.25235" y="-684" font-family="monospace,monospace" font-size="10.00" fill="#000000" svgjs:data="{&quot;leading&quot;:&quot;1.3&quot;}">(async)every body can get public ca cert</text></g><g id="edge96" class=""><g id="a_edge96"><a xlink:title=" "><polygon fill="#000000" stroke="#000000" points="852.6424,-646.5001 842.6424,-650 852.6424,-653.5001 852.6424,-646.5001"></polygon></a></g><text text-anchor="middle" x="1092.825" y="-653" font-family="monospace,monospace" font-size="10.00" fill="#000000" svgjs:data="{&quot;leading&quot;:&quot;1.3&quot;}">4: use public ca cert verify server cert</text><path id="SvgjsPath90120" d="M842.6424 -660 H862.6424 V-650 H842.6424" fill="none" stroke="#000000" stroke-width="1"></path></g><g id="edge110" class=""><path id="SvgjsPath90564" d="M982.2238134521485 -551 H1174.2074865478517 L1180.2074865478517 -545 V-533 H982.2238134521485 z M1174.2074865478517 -551 V-545 H1180.2074865478517" stroke="#696969" stroke-width="1" fill="#ffffe0"></path><g id="a_edge110"><a xlink:title=" "></a></g><text text-anchor="middle" x="1081.21565" y="-538" font-family="monospace,monospace" font-size="10.00" fill="#0000ff" svgjs:data="{&quot;leading&quot;:&quot;1.3&quot;}">currently server have client ca</text></g><g id="edge150" class=""><g id="a_edge150"><a xlink:title=" "><polygon fill="#0000ff" stroke="#0000ff" points="852.6424,-238.5001 842.6424,-242 852.6424,-245.5001 852.6424,-238.5001"></polygon></a></g><text text-anchor="middle" x="1092.825" y="-245" font-family="monospace,monospace" font-size="10.00" fill="#0000ff" svgjs:data="{&quot;leading&quot;:&quot;1.3&quot;}">8: use client ca cert verify public client cert</text><path id="SvgjsPath90125" d="M842.6424 -252 H862.6424 V-242 H842.6424" fill="none" stroke="#000000" stroke-width="1"></path></g><g id="edge154" class=""><g id="a_edge154"><a xlink:title=" "><polygon fill="#000000" stroke="#000000" points="852.6424,-208.5001 842.6424,-212 852.6424,-215.5001 852.6424,-208.5001"></polygon></a></g><text text-anchor="middle" x="1092.825" y="-215" font-family="monospace,monospace" font-size="10.00" fill="#000000" svgjs:data="{&quot;leading&quot;:&quot;1.3&quot;}">9: use private server key to decrypt encrypted key</text><path id="SvgjsPath90130" d="M842.6424 -222 H862.6424 V-212 H842.6424" fill="none" stroke="#000000" stroke-width="1"></path></g><g id="edge158" class=""><g id="a_edge158"><a xlink:title=" "><polygon fill="#0000ff" stroke="#0000ff" points="852.6424,-177.5001 842.6424,-181 852.6424,-184.5001 852.6424,-177.5001"></polygon></a></g><text text-anchor="middle" x="1092.825" y="-184" font-family="monospace,monospace" font-size="10.00" fill="#0000ff" svgjs:data="{&quot;leading&quot;:&quot;1.3&quot;}">10: use public client cert to verify signed messages</text><path id="SvgjsPath90135" d="M842.6424 -191 H862.6424 V-181 H842.6424" fill="none" stroke="#000000" stroke-width="1"></path></g><g id="edge162" class=""><path id="SvgjsPath90565" d="M970.2248663085938 -166 H1186.2064336914063 L1192.2064336914063 -160 V-148 H970.2248663085938 z M1186.2064336914063 -166 V-160 H1192.2064336914063" stroke="#696969" stroke-width="1" fill="#ffffe0"></path><g id="a_edge162"><a xlink:title=" "></a></g><text text-anchor="middle" x="1081.21565" y="-153" font-family="monospace,monospace" font-size="10.00" fill="#696969" svgjs:data="{&quot;leading&quot;:&quot;1.3&quot;}">currently server have symmetric key</text></g><g id="node117" class=""><g id="a_node117"><a xlink:title=" "><polygon fill="none" stroke="#000000" points="1384.7675,-32.5 1256.8095,-32.5 1256.8095,-3.5 1384.7675,-3.5 1384.7675,-32.5"></polygon><text text-anchor="middle" x="1320.7885" y="-15" font-family="monospace,monospace" font-size="10.00" fill="#000000" svgjs:data="{&quot;leading&quot;:&quot;1.3&quot;}">Certificate Authority</text></a></g></g><g id="edge77" class=""><path id="SvgjsPath90566" d="M1318.8642549926758 -813 H1576.8421450073242 L1582.8421450073242 -807 V-795 H1318.8642549926758 z M1576.8421450073242 -813 V-807 H1582.8421450073242" stroke="#696969" stroke-width="1" fill="#ffffe0"></path><g id="a_edge77"><a xlink:title=" "></a></g><text text-anchor="middle" x="1450.8532" y="-800" font-family="monospace,monospace" font-size="10.00" fill="#696969" svgjs:data="{&quot;leading&quot;:&quot;1.3&quot;}">ca holds private ca key and public ca cert</text></g><g id="edge85" class=""><path id="SvgjsPath90567" d="M1351.8613634521485 -753 H1543.8450365478516 L1549.8450365478516 -747 V-735 H1351.8613634521485 z M1543.8450365478516 -753 V-747 H1549.8450365478516" stroke="#696969" stroke-width="1" fill="#ffffe0"></path><g id="a_edge85"><a xlink:title=" "></a></g><text text-anchor="middle" x="1450.8532" y="-740" font-family="monospace,monospace" font-size="10.00" fill="#696969" svgjs:data="{&quot;leading&quot;:&quot;1.3&quot;}">use private ca key signing cert</text></g><g id="edge68" class=""><g id="a_edge68"><a xlink:title=" "></a></g><text text-anchor="middle" x="849.3271573425293" y="-849.984375" font-family="monospace,monospace" font-size="10.00" fill="#000000" svgjs:data="{&quot;leading&quot;:&quot;1.3&quot;}">certificate signing</text><path id="SvgjsPath90263" d="M326.6608 -860 H1329.9869 V-588.0007 H326.6608 z" fill="none" stroke="#000000" stroke-width="1"></path><path id="SvgjsPath90264" d="M326.6608 -860 H378.6674146850586 V-854 L372.6674146850586 -848 H326.6608 z" fill="lightgray" stroke="#000000" stroke-width="1"></path><text text-anchor="middle" x="347.6641073425293" y="-849.984375" font-family="monospace,monospace" font-size="10.00" fill="#000000" svgjs:data="{&quot;leading&quot;:&quot;1.3&quot;}"> &nbsp;strict</text></g><rect id="SvgjsRect90535" width="1590.068" height="947.32" x="-4" y="-943" fill="none" stroke="black" stroke-width="1"></rect><path id="SvgjsPath90556" d="M-4 -943 H75.99420928955078 V-936 L68.99420928955078 -929 L-4 -929 z" fill="none" stroke="black" stroke-width="1"></path></g></svg></svg>